<svg version="1.1" xmlns="http://www.w3.org/2000/svg" viewBox="0 0 957.75 287.75" width="957.75" height="287.75">
  <!-- svg-source:excalidraw -->
  
  <defs>
    <style class="style-fonts">
      @font-face {
        font-family: "Virgil";
        src: url("https://excalidraw.com/Virgil.woff2");
      }
      @font-face {
        font-family: "Cascadia";
        src: url("https://excalidraw.com/Cascadia.woff2");
      }
    </style>
    
  </defs>
  <g stroke-linecap="round" transform="translate(11.25 10) rotate(0 143.5 23.5)"><path d="M11.75 0 M11.75 0 C103.97 0.45, 197.56 0.18, 275.25 0 M11.75 0 C110.77 0.36, 208.98 1.27, 275.25 0 M275.25 0 C282.58 1.38, 286.17 2.65, 287 11.75 M275.25 0 C284.41 1.43, 285.56 5.68, 287 11.75 M287 11.75 C286.35 17.15, 285.35 28.06, 287 35.25 M287 11.75 C287.71 21.57, 286.7 29.42, 287 35.25 M287 35.25 C285.35 41.77, 281.25 46.57, 275.25 47 M287 35.25 C284.78 42.38, 283.74 46.08, 275.25 47 M275.25 47 C205.26 46.54, 135.2 46.72, 11.75 47 M275.25 47 C199.58 45.76, 123.53 46.16, 11.75 47 M11.75 47 C5.84 45.51, 0.15 41.9, 0 35.25 M11.75 47 C3.19 45.33, -2.24 42.57, 0 35.25 M0 35.25 C1.69 27.95, -1.8 23.58, 0 11.75 M0 35.25 C1.08 30.5, -0.07 25.52, 0 11.75 M0 11.75 C0.53 5.71, 3.96 -1.26, 11.75 0 M0 11.75 C0.23 3.65, 4.03 2.13, 11.75 0" stroke="#1e1e1e" stroke-width="1" fill="none"></path></g><g transform="translate(70.14999389648438 21) rotate(0 84.60000610351562 12.5)"><text x="84.60000610351562" y="0" font-family="Virgil, Segoe UI Emoji" font-size="20px" fill="#1e1e1e" text-anchor="middle" style="white-space: pre;" direction="ltr" dominant-baseline="text-before-edge">Address Bus High</text></g><g stroke-linecap="round" transform="translate(332.75 11.5) rotate(0 143.5 23.5)"><path d="M11.75 0 M11.75 0 C81.71 0.82, 149.22 -2.08, 275.25 0 M11.75 0 C93.23 0.5, 174.45 -0.1, 275.25 0 M275.25 0 C283.05 -1.2, 286.37 4.85, 287 11.75 M275.25 0 C284.88 -2.09, 288.02 4.82, 287 11.75 M287 11.75 C285.63 20.92, 287.09 27.04, 287 35.25 M287 11.75 C286.18 17.59, 286.69 24.6, 287 35.25 M287 35.25 C285.68 41.39, 281.57 47.12, 275.25 47 M287 35.25 C287.03 44.43, 283.97 47.35, 275.25 47 M275.25 47 C209.36 45.17, 147.32 47.44, 11.75 47 M275.25 47 C213.85 45.91, 151.03 45.5, 11.75 47 M11.75 47 C3.7 47.87, -1.52 42.28, 0 35.25 M11.75 47 C5.8 48.17, 0.64 40.84, 0 35.25 M0 35.25 C-0.47 27.78, 0.81 19.81, 0 11.75 M0 35.25 C-0.78 29.54, -1.01 24.76, 0 11.75 M0 11.75 C-1.5 5.52, 1.99 1.73, 11.75 0 M0 11.75 C0.23 2.94, 2.39 0.92, 11.75 0" stroke="#1e1e1e" stroke-width="1" fill="none"></path></g><g transform="translate(391.6800079345703 22.5) rotate(0 84.56999206542969 12.5)"><text x="84.56999206542969" y="0" font-family="Virgil, Segoe UI Emoji" font-size="20px" fill="#1e1e1e" text-anchor="middle" style="white-space: pre;" direction="ltr" dominant-baseline="text-before-edge">Address Bus Low</text></g><g stroke-linecap="round" transform="translate(660.75 13.5) rotate(0 143.5 23.5)"><path d="M11.75 0 M11.75 0 C105.54 -2.33, 197.13 -1.77, 275.25 0 M11.75 0 C82.27 2.04, 153.33 2.47, 275.25 0 M275.25 0 C284.64 -0.25, 285.66 2.01, 287 11.75 M275.25 0 C282.8 1.22, 285.45 4.42, 287 11.75 M287 11.75 C286.36 19.97, 286.04 26.36, 287 35.25 M287 11.75 C286.42 20.69, 285.86 30.75, 287 35.25 M287 35.25 C288.88 41.32, 282.82 46.48, 275.25 47 M287 35.25 C289.19 42.34, 283.71 45.91, 275.25 47 M275.25 47 C188.32 46.28, 103.38 46.93, 11.75 47 M275.25 47 C211.43 48.39, 146.28 48.34, 11.75 47 M11.75 47 C4.47 47.03, -1.61 44.5, 0 35.25 M11.75 47 C4.18 45.46, 1.02 42.03, 0 35.25 M0 35.25 C1.42 31.33, 1.11 25.19, 0 11.75 M0 35.25 C0.97 25.05, -0.37 16.08, 0 11.75 M0 11.75 C1.8 5.75, 2.98 -0.06, 11.75 0 M0 11.75 C0.94 3.82, 2.59 2.2, 11.75 0" stroke="#1e1e1e" stroke-width="1" fill="none"></path></g><g transform="translate(710.5100021362305 24.5) rotate(0 93.73999786376953 12.5)"><text x="93.73999786376953" y="0" font-family="Virgil, Segoe UI Emoji" font-size="20px" fill="#1e1e1e" text-anchor="middle" style="white-space: pre;" direction="ltr" dominant-baseline="text-before-edge">Address Bus Data</text></g><g stroke-linecap="round" transform="translate(10 226.25) rotate(0 143.5 23.5)"><path d="M11.75 0 M11.75 0 C83.97 0.35, 153.58 -1.89, 275.25 0 M11.75 0 C94.91 -1.67, 176.58 -2.42, 275.25 0 M275.25 0 C283.67 1.97, 285.47 3.63, 287 11.75 M275.25 0 C283.69 0.26, 288.33 1.63, 287 11.75 M287 11.75 C285.6 18.26, 287.2 27.18, 287 35.25 M287 11.75 C286.84 17.68, 287.05 23.52, 287 35.25 M287 35.25 C287.42 41.87, 282.95 46.77, 275.25 47 M287 35.25 C285.38 42.9, 283.81 47.72, 275.25 47 M275.25 47 C213.9 47.79, 152.53 47.07, 11.75 47 M275.25 47 C211.84 48.56, 149.2 48.4, 11.75 47 M11.75 47 C2.49 47.77, 1.5 41.68, 0 35.25 M11.75 47 C4.6 46.57, -0.16 42.26, 0 35.25 M0 35.25 C-1.9 28.82, 0.53 20.94, 0 11.75 M0 35.25 C-0.25 30.52, 0.5 25.13, 0 11.75 M0 11.75 C0.74 5.44, 1.98 1.31, 11.75 0 M0 11.75 C1.95 3.65, 3.83 -1.36, 11.75 0" stroke="#1e1e1e" stroke-width="1" fill="none"></path></g><g transform="translate(80.68000030517578 237.25) rotate(0 72.81999969482422 12.5)"><text x="72.81999969482422" y="0" font-family="Virgil, Segoe UI Emoji" font-size="20px" fill="#1e1e1e" text-anchor="middle" style="white-space: pre;" direction="ltr" dominant-baseline="text-before-edge">Data Bus High</text></g><g stroke-linecap="round" transform="translate(331.5 228.75) rotate(0 143.5 23.5)"><path d="M11.75 0 M11.75 0 C103.59 2.77, 196.54 3.21, 275.25 0 M11.75 0 C102.3 1.88, 191.78 0.98, 275.25 0 M275.25 0 C283.61 0.23, 288.15 1.93, 287 11.75 M275.25 0 C283.59 0.18, 288.2 2.28, 287 11.75 M287 11.75 C286.08 17.76, 285.67 22.98, 287 35.25 M287 11.75 C287.22 18.16, 286.94 25.67, 287 35.25 M287 35.25 C285.59 42.93, 283.71 47.63, 275.25 47 M287 35.25 C285.48 43.55, 284.13 47.39, 275.25 47 M275.25 47 C197.93 47.16, 123.85 44.5, 11.75 47 M275.25 47 C199.82 46.58, 126.13 45.71, 11.75 47 M11.75 47 C4.51 46.63, -0.14 42.37, 0 35.25 M11.75 47 C4.98 46.7, -0.24 40.86, 0 35.25 M0 35.25 C-1.51 26.87, -0.84 16.79, 0 11.75 M0 35.25 C0.24 27.52, -1.1 18.92, 0 11.75 M0 11.75 C1.7 3.68, 3.84 -1.19, 11.75 0 M0 11.75 C1.82 2.97, 2.58 -1.65, 11.75 0" stroke="#1e1e1e" stroke-width="1" fill="none"></path></g><g transform="translate(402.2099914550781 239.75) rotate(0 72.79000854492188 12.5)"><text x="72.79000854492188" y="0" font-family="Virgil, Segoe UI Emoji" font-size="20px" fill="#1e1e1e" text-anchor="middle" style="white-space: pre;" direction="ltr" dominant-baseline="text-before-edge">Data Bus Low</text></g><g stroke-linecap="round" transform="translate(659.5 230.75) rotate(0 143.5 23.5)"><path d="M11.75 0 M11.75 0 C105.13 -2.13, 196.32 -1.2, 275.25 0 M11.75 0 C116.98 0.39, 222.25 -0.49, 275.25 0 M275.25 0 C283.53 0.16, 288.04 2.5, 287 11.75 M275.25 0 C281.86 0.21, 287.33 2.83, 287 11.75 M287 11.75 C286.82 19.11, 286.63 26.77, 287 35.25 M287 11.75 C286.28 17.3, 287.3 23.31, 287 35.25 M287 35.25 C285.68 43.49, 283.99 47.34, 275.25 47 M287 35.25 C286.76 43.81, 281.8 45.58, 275.25 47 M275.25 47 C174.03 44.13, 72.75 44.11, 11.75 47 M275.25 47 C186.23 45.38, 96.68 45.25, 11.75 47 M11.75 47 C4.84 46.74, -0.21 41.15, 0 35.25 M11.75 47 C5.88 47.58, 2.25 41.41, 0 35.25 M0 35.25 C1.32 28.56, 1.21 20.31, 0 11.75 M0 35.25 C1.08 26.29, 0.19 16.97, 0 11.75 M0 11.75 C1.58 3.09, 2.76 -1.43, 11.75 0 M0 11.75 C0.05 3.79, 4.5 1.62, 11.75 0" stroke="#1e1e1e" stroke-width="1" fill="none"></path></g><g transform="translate(721.0400009155273 241.75) rotate(0 81.95999908447266 12.5)"><text x="81.95999908447266" y="0" font-family="Virgil, Segoe UI Emoji" font-size="20px" fill="#1e1e1e" text-anchor="middle" style="white-space: pre;" direction="ltr" dominant-baseline="text-before-edge">Data Bus Data</text></g><g stroke-linecap="round"><g transform="translate(296.25 34) rotate(0 17.238019159063697 -0.8411459735425808)"><path d="M-1 -0.33 C4.95 -0.66, 29.26 -1.36, 35.47 -1.43 M0.68 -1.54 C6.44 -1.76, 28.41 -0.5, 34.25 -0.11" stroke="#1e1e1e" stroke-width="1" fill="none"></path></g></g><mask></mask><g stroke-linecap="round"><g transform="translate(620.25 35) rotate(0 20.735845233630414 0.67555107954351)"><path d="M1.1 -0.54 C7.55 -0.41, 32.51 -0.34, 39.04 -0.2 M0.22 1.79 C7 2.19, 34.68 1.23, 41.25 1.24" stroke="#1e1e1e" stroke-width="1" fill="none"></path></g></g><mask></mask><g stroke-linecap="round"><g transform="translate(295.25 247) rotate(0 17.280507233366393 0.22348636742466965)"><path d="M-0.41 0.72 C5.48 0.87, 29.17 1.17, 34.97 1.01 M1.57 0.05 C7.34 -0.12, 28.72 -0.74, 34.01 -0.58" stroke="#1e1e1e" stroke-width="1" fill="none"></path></g></g><mask></mask><g stroke-linecap="round"><g transform="translate(616.25 251) rotate(0 22.687801649104756 0.5458972360938787)"><path d="M0.6 -1.18 C7.83 -0.82, 36.5 1.83, 43.83 2.27 M-0.55 0.81 C6.99 0.78, 38.57 0, 45.93 0.3" stroke="#1e1e1e" stroke-width="1" fill="none"></path></g></g><mask></mask><g stroke-linecap="round" transform="translate(17.25 92) rotate(0 139.5 53)"><path d="M26.5 0 M26.5 0 C95.8 1.99, 166.74 0.59, 252.5 0 M26.5 0 C107.5 2.03, 188.26 1.95, 252.5 0 M252.5 0 C271.67 -1.89, 280.04 7.93, 279 26.5 M252.5 0 C272.37 -1.62, 277.85 9.18, 279 26.5 M279 26.5 C278.55 46.95, 277.64 62.05, 279 79.5 M279 26.5 C278.05 47.36, 277.87 67.74, 279 79.5 M279 79.5 C280.76 95.82, 271.42 107.75, 252.5 106 M279 79.5 C279.1 95.63, 271.87 106.62, 252.5 106 M252.5 106 C189.86 106.23, 131.26 105.01, 26.5 106 M252.5 106 C173.37 103.94, 92.07 104.02, 26.5 106 M26.5 106 C7.19 105.97, 1.59 96.03, 0 79.5 M26.5 106 C8.3 106.13, 0.1 96, 0 79.5 M0 79.5 C-0.33 61.49, 0.74 44.71, 0 26.5 M0 79.5 C-0.31 61.84, 0.4 43.14, 0 26.5 M0 26.5 C-0.31 10.45, 9.5 -0.69, 26.5 0 M0 26.5 C-1.67 7.33, 9.02 2.12, 26.5 0" stroke="#1e1e1e" stroke-width="1" fill="none"></path></g><g transform="translate(25.289993286132812 107.5) rotate(0 131.4600067138672 37.5)"><text x="131.4600067138672" y="0" font-family="Virgil, Segoe UI Emoji" font-size="20px" fill="#1e1e1e" text-anchor="middle" style="white-space: pre;" direction="ltr" dominant-baseline="text-before-edge">Arithmetic Unit High</text><text x="131.4600067138672" y="25" font-family="Virgil, Segoe UI Emoji" font-size="20px" fill="#1e1e1e" text-anchor="middle" style="white-space: pre;" direction="ltr" dominant-baseline="text-before-edge">(Upper 16-bits of Address </text><text x="131.4600067138672" y="50" font-family="Virgil, Segoe UI Emoji" font-size="20px" fill="#1e1e1e" text-anchor="middle" style="white-space: pre;" direction="ltr" dominant-baseline="text-before-edge">or Data Register)</text></g><g stroke-linecap="round" transform="translate(338.75 94) rotate(0 139.5 53)"><path d="M26.5 0 M26.5 0 C111.72 1.97, 195.42 1.14, 252.5 0 M26.5 0 C83.86 1.51, 141.11 1.46, 252.5 0 M252.5 0 C269.95 -0.98, 278.23 8.15, 279 26.5 M252.5 0 C268.13 1.3, 279.56 9.41, 279 26.5 M279 26.5 C277.97 41.39, 277.6 54.68, 279 79.5 M279 26.5 C278.52 45.09, 279.13 62.98, 279 79.5 M279 79.5 C277.85 98.93, 270.94 105.65, 252.5 106 M279 79.5 C277.24 95.95, 272.07 105.35, 252.5 106 M252.5 106 C169.66 106.04, 87.78 107.08, 26.5 106 M252.5 106 C164.79 107.38, 76.54 107.58, 26.5 106 M26.5 106 C8.89 105.91, -0.81 98.81, 0 79.5 M26.5 106 C10.83 105.05, -2.17 97.55, 0 79.5 M0 79.5 C-1.67 68.51, -0.83 59.55, 0 26.5 M0 79.5 C0.09 66.29, -0.46 51.74, 0 26.5 M0 26.5 C0.86 7.69, 8.16 1.28, 26.5 0 M0 26.5 C-0.18 10.94, 6.74 -1.54, 26.5 0" stroke="#1e1e1e" stroke-width="1" fill="none"></path></g><g transform="translate(346.16998291015625 109.5) rotate(0 132.08001708984375 37.5)"><text x="132.08001708984375" y="0" font-family="Virgil, Segoe UI Emoji" font-size="20px" fill="#1e1e1e" text-anchor="middle" style="white-space: pre;" direction="ltr" dominant-baseline="text-before-edge">Arithmetic Unit Low</text><text x="132.08001708984375" y="25" font-family="Virgil, Segoe UI Emoji" font-size="20px" fill="#1e1e1e" text-anchor="middle" style="white-space: pre;" direction="ltr" dominant-baseline="text-before-edge">(Lower 16-bits of Address </text><text x="132.08001708984375" y="50" font-family="Virgil, Segoe UI Emoji" font-size="20px" fill="#1e1e1e" text-anchor="middle" style="white-space: pre;" direction="ltr" dominant-baseline="text-before-edge">Register)</text></g><g stroke-linecap="round"><g transform="translate(158.25 56) rotate(0 -0.6779946771820846 18.12272249062545)"><path d="M-0.1 -0.81 C-0.24 5.24, 0.28 29.47, 0.32 35.69 M-1.61 1.37 C-1.98 7.66, -0.64 31.55, -0.47 37.06" stroke="#1e1e1e" stroke-width="1" fill="none"></path></g></g><mask></mask><g stroke-linecap="round"><g transform="translate(159.25 198) rotate(0 0.24822661120444423 12.708281660173071)"><path d="M0.36 0.56 C0.41 4.68, -0.61 21.7, -0.86 25.61 M-0.91 -0.19 C-0.39 3.5, 1.05 19.64, 1.41 23.81" stroke="#1e1e1e" stroke-width="1" fill="none"></path></g></g><mask></mask><g stroke-linecap="round"><g transform="translate(477.25 63) rotate(0 -0.02156211351046977 14.134163692221051)"><path d="M-0.89 -1.18 C-0.86 3.86, 0.56 24.32, 0.58 29.45 M0.85 0.81 C0.73 5.55, -0.21 23.11, -0.06 27.56" stroke="#1e1e1e" stroke-width="1" fill="none"></path></g></g><mask></mask><g stroke-linecap="round"><g transform="translate(481.25 201) rotate(0 0.7123569383858808 13.22420840168374)"><path d="M1.1 0.04 C1.34 4.6, 1.08 23.14, 0.86 27.44 M0.23 -0.99 C0.43 3.19, 0.58 20.96, 0.37 25.55" stroke="#1e1e1e" stroke-width="1" fill="none"></path></g></g><mask></mask><g stroke-linecap="round" transform="translate(661.75 91) rotate(0 139.5 53)"><path d="M26.5 0 M26.5 0 C98.46 0.93, 167.04 0.86, 252.5 0 M26.5 0 C89 -0.15, 150.88 -1.34, 252.5 0 M252.5 0 C271.04 -1.1, 278.35 7.76, 279 26.5 M252.5 0 C270.72 0.01, 276.74 10.2, 279 26.5 M279 26.5 C278.71 47.44, 281.24 66.49, 279 79.5 M279 26.5 C277.7 40.23, 279.08 55.18, 279 79.5 M279 79.5 C277.77 96.44, 270.99 106.72, 252.5 106 M279 79.5 C279.4 98.15, 272.4 104.44, 252.5 106 M252.5 106 C184.68 102.95, 120.1 104.04, 26.5 106 M252.5 106 C163.28 106.72, 75.73 105.44, 26.5 106 M26.5 106 C8.8 105.99, -0.39 97.77, 0 79.5 M26.5 106 C11.04 106.12, -1.18 96.8, 0 79.5 M0 79.5 C-1.92 63.42, -1.53 43.5, 0 26.5 M0 79.5 C-1.14 59.09, -0.31 39.63, 0 26.5 M0 26.5 C1.61 7.19, 7.4 1.17, 26.5 0 M0 26.5 C-0.81 10.05, 6.59 2.01, 26.5 0" stroke="#1e1e1e" stroke-width="1" fill="none"></path></g><g transform="translate(680.9499969482422 106.5) rotate(0 120.30000305175781 37.5)"><text x="120.30000305175781" y="0" font-family="Virgil, Segoe UI Emoji" font-size="20px" fill="#1e1e1e" text-anchor="middle" style="white-space: pre;" direction="ltr" dominant-baseline="text-before-edge">Arithmetic Logic Unit</text><text x="120.30000305175781" y="25" font-family="Virgil, Segoe UI Emoji" font-size="20px" fill="#1e1e1e" text-anchor="middle" style="white-space: pre;" direction="ltr" dominant-baseline="text-before-edge">(Lower 16-bits of Data </text><text x="120.30000305175781" y="50" font-family="Virgil, Segoe UI Emoji" font-size="20px" fill="#1e1e1e" text-anchor="middle" style="white-space: pre;" direction="ltr" dominant-baseline="text-before-edge">Register)</text></g><g stroke-linecap="round"><g transform="translate(805.25 60) rotate(0 0.42571154530151034 14.857636152375477)"><path d="M1.13 0.35 C1.06 5.34, -0.69 24.09, -0.74 28.8 M0.26 -0.51 C0.61 4.76, 1.54 25.19, 1.59 30.23" stroke="#1e1e1e" stroke-width="1" fill="none"></path></g></g><mask></mask><g stroke-linecap="round"><g transform="translate(808.25 200) rotate(0 -0.7536466658647214 15.110965406242741)"><path d="M-0.19 -0.76 C-0.3 4.15, 0.31 24.38, 0.29 29.63 M-1.75 1.46 C-2.08 6.53, -0.59 26.41, -0.51 30.98" stroke="#1e1e1e" stroke-width="1" fill="none"></path></g></g><mask></mask></svg>