<svg version="1.1" xmlns="http://www.w3.org/2000/svg" viewBox="0 0 916.12890625 372.9263000488281" width="916.12890625" height="372.9263000488281">
  <!-- svg-source:excalidraw -->
  
  <defs>
    <style class="style-fonts">
      @font-face {
        font-family: "Virgil";
        src: url("https://excalidraw.com/Virgil.woff2");
      }
      @font-face {
        font-family: "Cascadia";
        src: url("https://excalidraw.com/Cascadia.woff2");
      }
    </style>
    
  </defs>
  <g stroke-linecap="round" transform="translate(12.278961181640625 10) rotate(0 446.9249725341797 17.5)"><path d="M8.75 0 M8.75 0 C234.89 -1.41, 461.28 -1.13, 885.1 0 M8.75 0 C219.11 1.67, 429.64 2.1, 885.1 0 M885.1 0 C891.78 0.12, 894.92 1.52, 893.85 8.75 M885.1 0 C890.43 -1.72, 895.85 0.84, 893.85 8.75 M893.85 8.75 C893.41 11.61, 892.35 15.18, 893.85 26.25 M893.85 8.75 C893.88 13.29, 893.79 18.41, 893.85 26.25 M893.85 26.25 C894.48 31.9, 892.43 36.28, 885.1 35 M893.85 26.25 C895.79 33.18, 890.08 36.6, 885.1 35 M885.1 35 C575.32 37.35, 264.31 37.25, 8.75 35 M885.1 35 C701.8 33.89, 518.89 33.55, 8.75 35 M8.75 35 C4.28 33.23, -1.24 33.92, 0 26.25 M8.75 35 C4.33 33.47, 0.72 32.47, 0 26.25 M0 26.25 C-0.35 18.5, -0.68 13.22, 0 8.75 M0 26.25 C0.57 22.04, 0.66 16.29, 0 8.75 M0 8.75 C-1.37 3.64, 1.07 -1.8, 8.75 0 M0 8.75 C1.86 2.65, 2.63 -1.19, 8.75 0" stroke="#1e1e1e" stroke-width="1" fill="none"></path></g><g transform="translate(374.60401153564453 15) rotate(0 84.59992218017578 12.5)"><text x="84.59992218017578" y="0" font-family="Virgil, Segoe UI Emoji" font-size="20px" fill="#1e1e1e" text-anchor="middle" style="white-space: pre;" direction="ltr" dominant-baseline="text-before-edge">Address Bus High</text></g><g stroke-linecap="round" transform="translate(53.91395568847656 119.42410278320312) rotate(0 69.442626953125 62.360870361328125)"><path d="M31.18 0 M31.18 0 C55.93 -2.42, 81.88 0.08, 107.7 0 M31.18 0 C55.5 0.63, 79.4 -0.47, 107.7 0 M107.7 0 C130.19 -0.95, 138.32 10.97, 138.89 31.18 M107.7 0 C130.64 1.58, 139.65 11.45, 138.89 31.18 M138.89 31.18 C137.88 49.73, 139.51 71.82, 138.89 93.54 M138.89 31.18 C139.84 47.23, 138.79 63.08, 138.89 93.54 M138.89 93.54 C137.43 113.89, 129.26 125.54, 107.7 124.72 M138.89 93.54 C139.44 113.78, 130.53 124.21, 107.7 124.72 M107.7 124.72 C82.79 126.21, 55.49 123.69, 31.18 124.72 M107.7 124.72 C77.26 123.87, 49.28 125.23, 31.18 124.72 M31.18 124.72 C10.35 124.26, -1.88 114.81, 0 93.54 M31.18 124.72 C11.03 122.42, 0.98 115.81, 0 93.54 M0 93.54 C1.3 75.91, -1.51 57.39, 0 31.18 M0 93.54 C-0.55 79.27, -1.33 65.93, 0 31.18 M0 31.18 C1.72 10.66, 9.17 -0.34, 31.18 0 M0 31.18 C1.39 11.97, 11.86 0.86, 31.18 0" stroke="#1e1e1e" stroke-width="1" fill="none"></path></g><g transform="translate(70.05663299560547 156.78497314453125) rotate(0 53.299949645996094 25)"><text x="53.299949645996094" y="0" font-family="Virgil, Segoe UI Emoji" font-size="20px" fill="#1e1e1e" text-anchor="middle" style="white-space: pre;" direction="ltr" dominant-baseline="text-before-edge">Arithmetic </text><text x="53.299949645996094" y="25" font-family="Virgil, Segoe UI Emoji" font-size="20px" fill="#1e1e1e" text-anchor="middle" style="white-space: pre;" direction="ltr" dominant-baseline="text-before-edge">Unit High</text></g><g stroke-linecap="round" transform="translate(201.7698516845703 64.05322265625) rotate(0 60.82830810546875 30)"><path d="M15 0 M15 0 C48.37 -0.48, 80.05 2.09, 106.66 0 M15 0 C32.63 -1.18, 52.05 -1.3, 106.66 0 M106.66 0 C116.05 -1.16, 123.09 5.48, 121.66 15 M106.66 0 C115.36 -1.86, 120.41 6.9, 121.66 15 M121.66 15 C120.46 27.62, 121.85 37.35, 121.66 45 M121.66 15 C121.14 27.11, 121.1 39.14, 121.66 45 M121.66 45 C122.96 55.72, 118.06 59.25, 106.66 60 M121.66 45 C119.99 54.71, 118.48 58.26, 106.66 60 M106.66 60 C81.82 61.16, 58.93 60.21, 15 60 M106.66 60 C75.4 60.39, 46.79 59.91, 15 60 M15 60 C6.41 59.17, 0.99 55.72, 0 45 M15 60 C3.81 61.33, -1.2 55.94, 0 45 M0 45 C-0.73 36.01, -1.65 27.08, 0 15 M0 45 C-0.03 35.37, -0.83 23.01, 0 15 M0 15 C1.16 4.2, 5.35 1.46, 15 0 M0 15 C-0.69 5.45, 7.07 1.42, 15 0" stroke="#1e1e1e" stroke-width="1" fill="none"></path></g><g transform="translate(207.44820404052734 69.05322265625) rotate(0 55.14995574951172 25)"><text x="55.14995574951172" y="0" font-family="Virgil, Segoe UI Emoji" font-size="20px" fill="#1e1e1e" text-anchor="middle" style="white-space: pre;" direction="ltr" dominant-baseline="text-before-edge">Constants </text><text x="55.14995574951172" y="25" font-family="Virgil, Segoe UI Emoji" font-size="20px" fill="#1e1e1e" text-anchor="middle" style="white-space: pre;" direction="ltr" dominant-baseline="text-before-edge">ROM (K)</text></g><g stroke-linecap="round" transform="translate(350.7121124267578 103.51425170898438) rotate(0 31.48614501953125 76.74847412109375)"><path d="M15.74 0 M15.74 0 C24.92 -1.95, 30.11 0.64, 47.23 0 M15.74 0 C26.98 -1.3, 37.46 -0.02, 47.23 0 M47.23 0 C56.18 1.77, 61.47 5.78, 62.97 15.74 M47.23 0 C56.45 0.82, 63.26 6.68, 62.97 15.74 M62.97 15.74 C60.99 56.21, 62.57 97.53, 62.97 137.75 M62.97 15.74 C64.31 48.83, 63.12 81.73, 62.97 137.75 M62.97 137.75 C64.89 149.53, 55.96 154.57, 47.23 153.5 M62.97 137.75 C64.07 146.16, 56.54 155.14, 47.23 153.5 M47.23 153.5 C34.34 154.93, 25.71 153.53, 15.74 153.5 M47.23 153.5 C37.7 154.32, 27.59 154.19, 15.74 153.5 M15.74 153.5 C4.78 153.81, -0.13 149.22, 0 137.75 M15.74 153.5 C5.52 154.99, -1.45 149.53, 0 137.75 M0 137.75 C0.28 99.22, -0.41 64.73, 0 15.74 M0 137.75 C-1.4 110.42, -1.04 84.13, 0 15.74 M0 15.74 C-1.32 3.35, 3.71 0.44, 15.74 0 M0 15.74 C1.34 4.81, 3.97 -0.41, 15.74 0" stroke="#1e1e1e" stroke-width="1" fill="none"></path></g><g transform="translate(364.1482696533203 155.26272583007812) rotate(0 18.04998779296875 25)"><text x="18.04998779296875" y="0" font-family="Virgil, Segoe UI Emoji" font-size="20px" fill="#1e1e1e" text-anchor="middle" style="white-space: pre;" direction="ltr" dominant-baseline="text-before-edge">PC </text><text x="18.04998779296875" y="25" font-family="Virgil, Segoe UI Emoji" font-size="20px" fill="#1e1e1e" text-anchor="middle" style="white-space: pre;" direction="ltr" dominant-baseline="text-before-edge">High</text></g><g stroke-linecap="round"><g transform="translate(382.82569885253906 47.014434814453125) rotate(0 -0.32373428204095944 28.671511907395896)"><path d="M-0.89 -1.19 C-0.88 8.4, -0.64 47.44, -0.32 57.26 M0.84 0.8 C0.69 10.57, -1.48 48.82, -1.49 58.53" stroke="#1e1e1e" stroke-width="1" fill="none"></path></g></g><mask></mask><g stroke-linecap="round"><g transform="translate(384.2881622314453 259.3495178222656) rotate(0 -0.1698253307584423 32.84192526661789)"><path d="M-0.6 1.03 C-0.61 11.49, -0.83 53.4, -0.76 63.91 M1.28 0.52 C1.19 11.65, -1.32 54.38, -1.62 65.16" stroke="#1e1e1e" stroke-width="1" fill="none"></path></g></g><mask></mask><g stroke-linecap="round"><g transform="translate(384.2881622314453 259.1165466308594) rotate(0 -0.6916808799142018 31.515992739298383)"><path d="M-0.2 -0.5 C-0.55 10.39, -1.78 53.83, -1.81 64.84 M-1.76 -1.81 C-1.77 8.76, 0.28 51.98, 0.43 62.91" stroke="#1e1e1e" stroke-width="1" fill="none"></path></g></g><mask></mask><g stroke-linecap="round" transform="translate(433.2893829345703 107.6429443359375) rotate(0 58.002655029296875 76.74847412109375)"><path d="M29 0 M29 0 C41.28 0.82, 55.79 -0.96, 87 0 M29 0 C41.93 -0.53, 54.92 0.04, 87 0 M87 0 C107.37 1.08, 117.1 8.26, 116.01 29 M87 0 C105.31 0.75, 115.79 9.54, 116.01 29 M116.01 29 C117.04 53.78, 114.27 79.63, 116.01 124.5 M116.01 29 C115.01 49.74, 115.86 67.64, 116.01 124.5 M116.01 124.5 C115.68 142.46, 107.04 155.33, 87 153.5 M116.01 124.5 C116.39 146.09, 107 154.88, 87 153.5 M87 153.5 C75.37 151.07, 61.92 151.33, 29 153.5 M87 153.5 C65.96 153.8, 43.33 152.48, 29 153.5 M29 153.5 C9.85 154.09, 0.08 143.49, 0 124.5 M29 153.5 C8.33 155.1, 0.96 141.97, 0 124.5 M0 124.5 C-0.51 95.18, 0.94 63.94, 0 29 M0 124.5 C-1.05 99.99, -0.77 72.83, 0 29 M0 29 C-1.35 11.15, 10.36 1.56, 29 0 M0 29 C2.07 10.82, 11.84 -0.35, 29 0" stroke="#1e1e1e" stroke-width="1" fill="none"></path></g><g transform="translate(441.00208282470703 146.89141845703125) rotate(0 50.289955139160156 37.5)"><text x="50.289955139160156" y="0" font-family="Virgil, Segoe UI Emoji" font-size="20px" fill="#1e1e1e" text-anchor="middle" style="white-space: pre;" direction="ltr" dominant-baseline="text-before-edge">Address </text><text x="50.289955139160156" y="25" font-family="Virgil, Segoe UI Emoji" font-size="20px" fill="#1e1e1e" text-anchor="middle" style="white-space: pre;" direction="ltr" dominant-baseline="text-before-edge">Temporary</text><text x="50.289955139160156" y="50" font-family="Virgil, Segoe UI Emoji" font-size="20px" fill="#1e1e1e" text-anchor="middle" style="white-space: pre;" direction="ltr" dominant-baseline="text-before-edge">High (ATH)</text></g><g stroke-linecap="round"><g transform="translate(492.20680236816406 50.459625244140625) rotate(0 -1.033330633491289 28.634856953471896)"><path d="M0.72 -0.77 C0.34 9, -2.31 48.49, -2.79 58.04 M-0.36 1.44 C-0.33 10.89, -0.11 46.81, -0.56 56.12" stroke="#1e1e1e" stroke-width="1" fill="none"></path></g></g><mask></mask><g stroke-linecap="round"><g transform="translate(490.6005401611328 260.8904113769531) rotate(0 0.07722936581529893 31.607876942306774)"><path d="M0.73 -0.83 C0.83 9.87, 0.36 53.47, 0.35 64.04 M-0.34 1.35 C-0.38 11.68, -0.65 51.74, -0.58 62.07" stroke="#1e1e1e" stroke-width="1" fill="none"></path></g></g><mask></mask><g stroke-linecap="round" transform="translate(561.3896942138672 110.89019775390625) rotate(0 58.002655029296875 76.74847412109375)"><path d="M29 0 M29 0 C50.53 0.6, 70.45 -1.27, 87 0 M29 0 C44.82 -0.64, 60.21 -1.11, 87 0 M87 0 C105.3 -1.91, 114.4 9.08, 116.01 29 M87 0 C105.13 -1.84, 115.57 10.55, 116.01 29 M116.01 29 C115 66.69, 116.09 107.08, 116.01 124.5 M116.01 29 C116.45 66.8, 116.64 104.87, 116.01 124.5 M116.01 124.5 C116.29 143.55, 107.1 152.74, 87 153.5 M116.01 124.5 C114.6 141.72, 104.43 153.52, 87 153.5 M87 153.5 C66.48 153.33, 45.14 153.93, 29 153.5 M87 153.5 C75.32 154.64, 61.68 154.44, 29 153.5 M29 153.5 C11.51 153.25, 0.87 144.27, 0 124.5 M29 153.5 C8.14 151.63, 1.65 143.56, 0 124.5 M0 124.5 C0.24 94.35, -0.23 61, 0 29 M0 124.5 C0.05 103.96, -0.01 81.58, 0 29 M0 29 C-0.08 10.3, 7.76 -1.34, 29 0 M0 29 C1.76 11.4, 9.27 -1.25, 29 0" stroke="#1e1e1e" stroke-width="1" fill="none"></path></g><g transform="translate(567.8623962402344 150.138671875) rotate(0 51.52995300292969 37.5)"><text x="51.52995300292969" y="0" font-family="Virgil, Segoe UI Emoji" font-size="20px" fill="#1e1e1e" text-anchor="middle" style="white-space: pre;" direction="ltr" dominant-baseline="text-before-edge">Data </text><text x="51.52995300292969" y="25" font-family="Virgil, Segoe UI Emoji" font-size="20px" fill="#1e1e1e" text-anchor="middle" style="white-space: pre;" direction="ltr" dominant-baseline="text-before-edge">Temporary</text><text x="51.52995300292969" y="50" font-family="Virgil, Segoe UI Emoji" font-size="20px" fill="#1e1e1e" text-anchor="middle" style="white-space: pre;" direction="ltr" dominant-baseline="text-before-edge">High (DTH)</text></g><g stroke-linecap="round"><g transform="translate(619.2087554931641 50.237335205078125) rotate(0 0.09605041902051425 30.05463249396999)"><path d="M0.83 -0.72 C0.81 9.44, 0.36 49.45, 0.13 59.9 M-0.2 1.51 C-0.36 11.87, -0.42 51.07, -0.63 60.83" stroke="#1e1e1e" stroke-width="1" fill="none"></path></g></g><mask></mask><g stroke-linecap="round"><g transform="translate(621.9004058837891 265.43402099609375) rotate(0 0.3577509741252243 30.344568070368865)"><path d="M-0.59 0.85 C-0.57 10.63, 0.14 49.23, 0.17 58.99 M1.3 0.25 C1.23 10.19, 0.08 50.33, -0.31 60.44" stroke="#1e1e1e" stroke-width="1" fill="none"></path></g></g><mask></mask><g stroke-linecap="round" transform="translate(697.7511138916016 113.79251098632812) rotate(0 35.947174072265625 75.54269409179688)"><path d="M17.97 0 M17.97 0 C25.53 1.71, 35.91 -0.75, 53.92 0 M17.97 0 C27.2 -0.44, 36.71 0.85, 53.92 0 M53.92 0 C67.83 -1.85, 70.26 7.65, 71.89 17.97 M53.92 0 C67.86 -0.9, 73.72 5.92, 71.89 17.97 M71.89 17.97 C71.76 42.09, 70.75 67.69, 71.89 133.11 M71.89 17.97 C72.95 51.31, 72.96 83.83, 71.89 133.11 M71.89 133.11 C73.87 143.47, 65.46 149.12, 53.92 151.09 M71.89 133.11 C73.42 143.52, 68.15 149.99, 53.92 151.09 M53.92 151.09 C48.06 151.94, 38.55 149.02, 17.97 151.09 M53.92 151.09 C43.88 151.11, 31.64 150.58, 17.97 151.09 M17.97 151.09 C5.45 151.56, 1.3 144.74, 0 133.11 M17.97 151.09 C7.68 149.62, 0.88 144.24, 0 133.11 M0 133.11 C-2.61 92.9, -1.62 48.75, 0 17.97 M0 133.11 C0.49 108.25, 1.04 84.53, 0 17.97 M0 17.97 C0.53 5.04, 6.86 -1.73, 17.97 0 M0 17.97 C-1.28 3.8, 4.43 -0.44, 17.97 0" stroke="#1e1e1e" stroke-width="1" fill="none"></path></g><g transform="translate(702.8383026123047 164.335205078125) rotate(0 30.8599853515625 25)"><text x="30.8599853515625" y="0" font-family="Virgil, Segoe UI Emoji" font-size="20px" fill="#1e1e1e" text-anchor="middle" style="white-space: pre;" direction="ltr" dominant-baseline="text-before-edge">A0..A7</text><text x="30.8599853515625" y="25" font-family="Virgil, Segoe UI Emoji" font-size="20px" fill="#1e1e1e" text-anchor="middle" style="white-space: pre;" direction="ltr" dominant-baseline="text-before-edge">High</text></g><g stroke-linecap="round"><g transform="translate(733.6744537353516 49.8638916015625) rotate(0 -0.5602474504941597 32.85464428682812)"><path d="M0.58 0.46 C0.36 11.36, -0.87 54.23, -1.28 65.11 M-0.57 -0.34 C-0.87 10.68, -1.39 54.85, -1.7 66.05" stroke="#1e1e1e" stroke-width="1" fill="none"></path></g></g><mask></mask><g stroke-linecap="round"><g transform="translate(734.1324005126953 266.2711486816406) rotate(0 -0.41327150002030066 29.063060429925088)"><path d="M0.66 0.53 C0.7 10.05, -0.36 47.65, -0.41 57.28 M-0.45 -0.23 C-0.53 9.4, -1.54 48.36, -1.49 58.36" stroke="#1e1e1e" stroke-width="1" fill="none"></path></g></g><mask></mask><g stroke-linecap="round" transform="translate(786.1407318115234 115.21630859375) rotate(0 40.255615234375 75.54269409179688)"><path d="M20.13 0 M20.13 0 C34.32 -1.53, 48.27 1.64, 60.38 0 M20.13 0 C29.45 -0.85, 40.64 -0.26, 60.38 0 M60.38 0 C72.53 -0.78, 81.77 7.8, 80.51 20.13 M60.38 0 C74.09 1.91, 79.77 8.68, 80.51 20.13 M80.51 20.13 C80.07 54.82, 81.15 89.77, 80.51 130.96 M80.51 20.13 C79.99 44.98, 80.5 70.23, 80.51 130.96 M80.51 130.96 C80.06 143.46, 74.89 149.32, 60.38 151.09 M80.51 130.96 C82.68 142.09, 72.06 150.07, 60.38 151.09 M60.38 151.09 C44.73 151.45, 32.15 151.65, 20.13 151.09 M60.38 151.09 C46.41 150.89, 32.88 150.91, 20.13 151.09 M20.13 151.09 C7.13 151.04, 1.77 142.62, 0 130.96 M20.13 151.09 C7.43 149.44, -0.51 142.55, 0 130.96 M0 130.96 C-2.38 109.6, -0.59 86.47, 0 20.13 M0 130.96 C-1.02 92.99, -0.42 55.04, 0 20.13 M0 20.13 C-1.75 8.45, 6.88 -0.63, 20.13 0 M0 20.13 C1.97 8.46, 7.35 -0.71, 20.13 0" stroke="#1e1e1e" stroke-width="1" fill="none"></path></g><g transform="translate(793.0563659667969 165.75900268554688) rotate(0 33.33998107910156 25)"><text x="33.33998107910156" y="0" font-family="Virgil, Segoe UI Emoji" font-size="20px" fill="#1e1e1e" text-anchor="middle" style="white-space: pre;" direction="ltr" dominant-baseline="text-before-edge">D0..D7</text><text x="33.33998107910156" y="25" font-family="Virgil, Segoe UI Emoji" font-size="20px" fill="#1e1e1e" text-anchor="middle" style="white-space: pre;" direction="ltr" dominant-baseline="text-before-edge">High</text></g><g stroke-linecap="round"><g transform="translate(822.1652374267578 52.377593994140625) rotate(0 -0.6133442925682857 32.1860676270211)"><path d="M-0.02 -0.93 C-0.01 9.61, 0.29 53.1, 0.27 64.15 M-1.49 1.19 C-1.61 11.79, -0.5 54.95, -0.4 65.3" stroke="#1e1e1e" stroke-width="1" fill="none"></path></g></g><mask></mask><g stroke-linecap="round"><g transform="translate(828.2972564697266 268.8579406738281) rotate(0 -1.0300133719911173 28.163619874948637)"><path d="M0.01 0.14 C-0.36 9.35, -1.01 46.74, -1.61 56.11 M-1.45 -0.83 C-1.94 8.43, -2.1 47.46, -2.06 57.16" stroke="#1e1e1e" stroke-width="1" fill="none"></path></g></g><mask></mask><g stroke-linecap="round" transform="translate(10 327.9263000488281) rotate(0 446.9249725341797 17.5)"><path d="M8.75 0 M8.75 0 C264.71 -0.82, 521.48 -0.61, 885.1 0 M8.75 0 C244.26 -2.4, 479.61 -2, 885.1 0 M885.1 0 C890.44 0.25, 892.21 2.68, 893.85 8.75 M885.1 0 C890.92 -0.51, 894.04 1.76, 893.85 8.75 M893.85 8.75 C894.43 12.12, 892.4 17.15, 893.85 26.25 M893.85 8.75 C893.7 13.11, 893.3 17.31, 893.85 26.25 M893.85 26.25 C894.31 33.22, 892.88 35.59, 885.1 35 M893.85 26.25 C891.91 29.81, 890.78 35.52, 885.1 35 M885.1 35 C635.05 37.49, 385.29 37.02, 8.75 35 M885.1 35 C588.29 34.17, 291.24 33.76, 8.75 35 M8.75 35 C4.67 33.28, -0.02 33.85, 0 26.25 M8.75 35 C4.66 33.44, 0.13 32.92, 0 26.25 M0 26.25 C-0.34 21.67, -1.28 19.14, 0 8.75 M0 26.25 C0.79 21.82, 0.35 17.41, 0 8.75 M0 8.75 C1.9 3.58, 1.8 1.01, 8.75 0 M0 8.75 C1.85 3.22, 3.04 0.14, 8.75 0" stroke="#1e1e1e" stroke-width="1" fill="none"></path></g><g transform="translate(384.1050262451172 332.9263000488281) rotate(0 72.8199462890625 12.5)"><text x="72.8199462890625" y="0" font-family="Virgil, Segoe UI Emoji" font-size="20px" fill="#1e1e1e" text-anchor="middle" style="white-space: pre;" direction="ltr" dominant-baseline="text-before-edge">Data Bus High</text></g><g stroke-linecap="round"><g transform="translate(136.78627014160156 248.30221557617188) rotate(0 117.46146222454959 27.31619057530014)"><path d="M0.21 0.61 C23.84 9.56, 103.04 51.46, 142.35 53.4 C181.66 55.33, 220.43 19.15, 236.07 12.23 M-1.14 -0.12 C22.36 9.03, 102.54 52.45, 141.93 54.66 C181.32 56.87, 219.44 20.17, 235.19 13.11" stroke="#1e1e1e" stroke-width="1" fill="none"></path></g><g transform="translate(136.78627014160156 248.30221557617188) rotate(0 117.46146222454959 27.31619057530014)"><path d="M217.92 38.56 C222.47 28.23, 228.33 20.16, 233.19 13.88 M216.99 35.94 C223.22 27.16, 230.71 18.73, 235.41 13.51" stroke="#1e1e1e" stroke-width="1" fill="none"></path></g><g transform="translate(136.78627014160156 248.30221557617188) rotate(0 117.46146222454959 27.31619057530014)"><path d="M206.9 21.25 C215.24 16.92, 224.93 14.87, 233.19 13.88 M205.97 18.62 C216.19 16.01, 227.66 13.85, 235.41 13.51" stroke="#1e1e1e" stroke-width="1" fill="none"></path></g></g><mask></mask><g stroke-linecap="round"><g transform="translate(124.56990051269531 43.72804260253906) rotate(0 -1.2875038274928556 36.338188208537176)"><path d="M-0.19 0.15 C-0.33 12.17, -1.18 60.17, -1.28 72.13 M-1.75 -0.81 C-2.04 11.37, -2.43 61.2, -2.38 73.49" stroke="#1e1e1e" stroke-width="1" fill="none"></path></g><g transform="translate(124.56990051269531 43.72804260253906) rotate(0 -1.2875038274928556 36.338188208537176)"><path d="M-12.3 44.79 C-10.43 53.07, -8.09 61.88, -3.33 72.86 M-12.36 45.45 C-9.21 55.46, -4.13 66.82, -2 74.02" stroke="#1e1e1e" stroke-width="1" fill="none"></path></g><g transform="translate(124.56990051269531 43.72804260253906) rotate(0 -1.2875038274928556 36.338188208537176)"><path d="M8.22 44.86 C4.68 53.08, 1.6 61.88, -3.33 72.86 M8.16 45.51 C3.68 55.35, 1.14 66.68, -2 74.02" stroke="#1e1e1e" stroke-width="1" fill="none"></path></g></g><mask></mask><g stroke-linecap="round"><g transform="translate(199.77748107910156 89.64894104003906) rotate(0 -36.13175601052586 13.515218872525722)"><path d="M0.57 -0.58 C-4.08 -0.14, -16.11 -1.56, -28.27 2.92 C-40.43 7.41, -64.96 22.52, -72.38 26.31 M-0.59 1.73 C-4.84 2.3, -13.98 -0.17, -26.02 4.14 C-38.06 8.46, -65.09 23.89, -72.83 27.61" stroke="#1e1e1e" stroke-width="1" fill="none"></path></g><g transform="translate(199.77748107910156 89.64894104003906) rotate(0 -36.13175601052586 13.515218872525722)"><path d="M-56.62 7.3 C-61.25 14.94, -64.93 19.31, -73.93 29.14 M-55.23 8.69 C-59.97 12.73, -62.48 16.34, -71.88 28.07" stroke="#1e1e1e" stroke-width="1" fill="none"></path></g><g transform="translate(199.77748107910156 89.64894104003906) rotate(0 -36.13175601052586 13.515218872525722)"><path d="M-48.53 22.75 C-55.38 26.26, -61.23 26.47, -73.93 29.14 M-47.13 24.14 C-53.63 25.04, -57.8 25.48, -71.88 28.07" stroke="#1e1e1e" stroke-width="1" fill="none"></path></g></g><mask></mask><g stroke-linecap="round"><g transform="translate(121.87757873535156 246.89065551757812) rotate(0 0.6520464001362996 39.517763008922344)"><path d="M0.92 -0.89 C1.27 12.29, 1.16 66.44, 1.37 79.93 M-0.06 1.25 C0.16 14, -0.09 65.24, 0.19 78.03" stroke="#1e1e1e" stroke-width="1" fill="none"></path></g></g><mask></mask></svg>