<svg version="1.1" xmlns="http://www.w3.org/2000/svg" viewBox="0 0 1042.0279998779297 372.69496154785156" width="1042.0279998779297" height="372.69496154785156">
  <!-- svg-source:excalidraw -->
  
  <defs>
    <style class="style-fonts">
      @font-face {
        font-family: "Virgil";
        src: url("https://excalidraw.com/Virgil.woff2");
      }
      @font-face {
        font-family: "Cascadia";
        src: url("https://excalidraw.com/Cascadia.woff2");
      }
    </style>
    
  </defs>
  <g stroke-linecap="round" transform="translate(10 10) rotate(0 511.01399993896484 17.5)"><path d="M8.75 0 M8.75 0 C268 -1.66, 527.5 -1.38, 1013.28 0 M8.75 0 C249.88 1.92, 491.18 2.35, 1013.28 0 M1013.28 0 C1019.95 0.12, 1023.1 1.52, 1022.03 8.75 M1013.28 0 C1018.61 -1.72, 1024.03 0.84, 1022.03 8.75 M1022.03 8.75 C1021.59 11.61, 1020.52 15.18, 1022.03 26.25 M1022.03 8.75 C1022.06 13.29, 1021.97 18.41, 1022.03 26.25 M1022.03 26.25 C1022.66 31.9, 1020.61 36.28, 1013.28 35 M1022.03 26.25 C1023.97 33.18, 1018.26 36.6, 1013.28 35 M1013.28 35 C658.15 37.6, 301.78 37.5, 8.75 35 M1013.28 35 C803.21 33.72, 593.52 33.38, 8.75 35 M8.75 35 C4.28 33.23, -1.24 33.92, 0 26.25 M8.75 35 C4.33 33.47, 0.72 32.47, 0 26.25 M0 26.25 C-0.35 18.5, -0.68 13.22, 0 8.75 M0 26.25 C0.57 22.04, 0.66 16.29, 0 8.75 M0 8.75 C-1.37 3.64, 1.07 -1.8, 8.75 0 M0 8.75 C1.86 2.65, 2.63 -1.19, 8.75 0" stroke="#1e1e1e" stroke-width="1" fill="none"></path></g><g transform="translate(427.2740707397461 15) rotate(0 93.73992919921875 12.5)"><text x="93.73992919921875" y="0" font-family="Virgil, Segoe UI Emoji" font-size="20px" fill="#1e1e1e" text-anchor="middle" style="white-space: pre;" direction="ltr" dominant-baseline="text-before-edge">Address Bus Data</text></g><g stroke-linecap="round" transform="translate(179.6910400390625 119.19276428222656) rotate(0 69.442626953125 62.360870361328125)"><path d="M31.18 0 M31.18 0 C55.93 -2.42, 81.88 0.08, 107.7 0 M31.18 0 C55.5 0.63, 79.4 -0.47, 107.7 0 M107.7 0 C130.19 -0.95, 138.32 10.97, 138.89 31.18 M107.7 0 C130.64 1.58, 139.65 11.45, 138.89 31.18 M138.89 31.18 C137.88 49.73, 139.51 71.82, 138.89 93.54 M138.89 31.18 C139.84 47.23, 138.79 63.08, 138.89 93.54 M138.89 93.54 C137.43 113.89, 129.26 125.54, 107.7 124.72 M138.89 93.54 C139.44 113.78, 130.53 124.21, 107.7 124.72 M107.7 124.72 C82.79 126.21, 55.49 123.69, 31.18 124.72 M107.7 124.72 C77.26 123.87, 49.28 125.23, 31.18 124.72 M31.18 124.72 C10.35 124.26, -1.88 114.81, 0 93.54 M31.18 124.72 C11.03 122.42, 0.98 115.81, 0 93.54 M0 93.54 C1.3 75.91, -1.51 57.39, 0 31.18 M0 93.54 C-0.55 79.27, -1.33 65.93, 0 31.18 M0 31.18 C1.72 10.66, 9.17 -0.34, 31.18 0 M0 31.18 C1.39 11.97, 11.86 0.86, 31.18 0" stroke="#1e1e1e" stroke-width="1" fill="none"></path></g><g transform="translate(195.73370361328125 144.0536346435547) rotate(0 53.39996337890625 37.5)"><text x="53.39996337890625" y="0" font-family="Virgil, Segoe UI Emoji" font-size="20px" fill="#1e1e1e" text-anchor="middle" style="white-space: pre;" direction="ltr" dominant-baseline="text-before-edge">Arithmetic </text><text x="53.39996337890625" y="25" font-family="Virgil, Segoe UI Emoji" font-size="20px" fill="#1e1e1e" text-anchor="middle" style="white-space: pre;" direction="ltr" dominant-baseline="text-before-edge">Logic Unit </text><text x="53.39996337890625" y="50" font-family="Virgil, Segoe UI Emoji" font-size="20px" fill="#1e1e1e" text-anchor="middle" style="white-space: pre;" direction="ltr" dominant-baseline="text-before-edge">(ALU)</text></g><g stroke-linecap="round" transform="translate(334.5072021484375 232.14100646972656) rotate(0 60.82830810546875 30)"><path d="M15 0 M15 0 C48.37 -0.48, 80.05 2.09, 106.66 0 M15 0 C32.63 -1.18, 52.05 -1.3, 106.66 0 M106.66 0 C116.05 -1.16, 123.09 5.48, 121.66 15 M106.66 0 C115.36 -1.86, 120.41 6.9, 121.66 15 M121.66 15 C120.46 27.62, 121.85 37.35, 121.66 45 M121.66 15 C121.14 27.11, 121.1 39.14, 121.66 45 M121.66 45 C122.96 55.72, 118.06 59.25, 106.66 60 M121.66 45 C119.99 54.71, 118.48 58.26, 106.66 60 M106.66 60 C81.82 61.16, 58.93 60.21, 15 60 M106.66 60 C75.4 60.39, 46.79 59.91, 15 60 M15 60 C6.41 59.17, 0.99 55.72, 0 45 M15 60 C3.81 61.33, -1.2 55.94, 0 45 M0 45 C-0.73 36.01, -1.65 27.08, 0 15 M0 45 C-0.03 35.37, -0.83 23.01, 0 15 M0 15 C1.16 4.2, 5.35 1.46, 15 0 M0 15 C-0.69 5.45, 7.07 1.42, 15 0" stroke="#1e1e1e" stroke-width="1" fill="none"></path></g><g transform="translate(340.18555450439453 237.14100646972656) rotate(0 55.14995574951172 25)"><text x="55.14995574951172" y="0" font-family="Virgil, Segoe UI Emoji" font-size="20px" fill="#1e1e1e" text-anchor="middle" style="white-space: pre;" direction="ltr" dominant-baseline="text-before-edge">Constants </text><text x="55.14995574951172" y="25" font-family="Virgil, Segoe UI Emoji" font-size="20px" fill="#1e1e1e" text-anchor="middle" style="white-space: pre;" direction="ltr" dominant-baseline="text-before-edge">ROM (K)</text></g><g stroke-linecap="round" transform="translate(470.2350158691406 104.98857116699219) rotate(0 39.52644348144531 76.74847412109375)"><path d="M19.76 0 M19.76 0 C31.01 -1.95, 38.28 0.64, 59.29 0 M19.76 0 C33.8 -1.38, 47.07 -0.1, 59.29 0 M59.29 0 C70.92 1.77, 77.55 7.12, 79.05 19.76 M59.29 0 C71.19 0.82, 79.34 8.02, 79.05 19.76 M79.05 19.76 C77.14 57.58, 78.72 96.26, 79.05 133.73 M79.05 19.76 C80.35 50.68, 79.16 81.42, 79.05 133.73 M79.05 133.73 C80.97 148.19, 70.7 154.57, 59.29 153.5 M79.05 133.73 C80.15 144.82, 71.29 155.14, 59.29 153.5 M59.29 153.5 C43.49 154.95, 31.96 153.55, 19.76 153.5 M59.29 153.5 C47.26 154.34, 34.64 154.2, 19.76 153.5 M19.76 153.5 C6.12 153.81, -0.13 147.88, 0 133.73 M19.76 153.5 C6.86 154.99, -1.45 148.19, 0 133.73 M0 133.73 C0.29 97.63, -0.4 65.58, 0 19.76 M0 133.73 C-1.36 108.2, -1 83.7, 0 19.76 M0 19.76 C-1.32 4.69, 5.05 0.44, 19.76 0 M0 19.76 C1.34 6.15, 5.31 -0.41, 19.76 0" stroke="#1e1e1e" stroke-width="1" fill="none"></path></g><g transform="translate(475.27147674560547 144.23704528808594) rotate(0 34.48998260498047 37.5)"><text x="34.48998260498047" y="0" font-family="Virgil, Segoe UI Emoji" font-size="20px" fill="#1e1e1e" text-anchor="middle" style="white-space: pre;" direction="ltr" dominant-baseline="text-before-edge">Alu </text><text x="34.48998260498047" y="25" font-family="Virgil, Segoe UI Emoji" font-size="20px" fill="#1e1e1e" text-anchor="middle" style="white-space: pre;" direction="ltr" dominant-baseline="text-before-edge">Buffer</text><text x="34.48998260498047" y="50" font-family="Virgil, Segoe UI Emoji" font-size="20px" fill="#1e1e1e" text-anchor="middle" style="white-space: pre;" direction="ltr" dominant-baseline="text-before-edge">(ALUB)</text></g><g stroke-linecap="round" transform="translate(578.0628967285156 108.19224548339844) rotate(0 58.002655029296875 76.74847412109375)"><path d="M29 0 M29 0 C50.53 0.6, 70.45 -1.27, 87 0 M29 0 C44.82 -0.64, 60.21 -1.11, 87 0 M87 0 C105.3 -1.91, 114.4 9.08, 116.01 29 M87 0 C105.13 -1.84, 115.57 10.55, 116.01 29 M116.01 29 C115 66.69, 116.09 107.08, 116.01 124.5 M116.01 29 C116.45 66.8, 116.64 104.87, 116.01 124.5 M116.01 124.5 C116.29 143.55, 107.1 152.74, 87 153.5 M116.01 124.5 C114.6 141.72, 104.43 153.52, 87 153.5 M87 153.5 C66.48 153.33, 45.14 153.93, 29 153.5 M87 153.5 C75.32 154.64, 61.68 154.44, 29 153.5 M29 153.5 C11.51 153.25, 0.87 144.27, 0 124.5 M29 153.5 C8.14 151.63, 1.65 143.56, 0 124.5 M0 124.5 C0.24 94.35, -0.23 61, 0 29 M0 124.5 C0.05 103.96, -0.01 81.58, 0 29 M0 29 C-0.08 10.3, 7.76 -1.34, 29 0 M0 29 C1.76 11.4, 9.27 -1.25, 29 0" stroke="#1e1e1e" stroke-width="1" fill="none"></path></g><g transform="translate(584.0555953979492 147.4407196044922) rotate(0 52.00995635986328 37.5)"><text x="52.00995635986328" y="0" font-family="Virgil, Segoe UI Emoji" font-size="20px" fill="#1e1e1e" text-anchor="middle" style="white-space: pre;" direction="ltr" dominant-baseline="text-before-edge">Data </text><text x="52.00995635986328" y="25" font-family="Virgil, Segoe UI Emoji" font-size="20px" fill="#1e1e1e" text-anchor="middle" style="white-space: pre;" direction="ltr" dominant-baseline="text-before-edge">Temporary</text><text x="52.00995635986328" y="50" font-family="Virgil, Segoe UI Emoji" font-size="20px" fill="#1e1e1e" text-anchor="middle" style="white-space: pre;" direction="ltr" dominant-baseline="text-before-edge">High (DTL)</text></g><g stroke-linecap="round"><g transform="translate(636.0277099609375 45.41282653808594) rotate(0 0.09605041902051425 30.05463249396999)"><path d="M0.83 -0.72 C0.81 9.44, 0.36 49.45, 0.13 59.9 M-0.2 1.51 C-0.36 11.87, -0.42 51.07, -0.63 60.83" stroke="#1e1e1e" stroke-width="1" fill="none"></path></g></g><mask></mask><g stroke-linecap="round"><g transform="translate(640.545654296875 266.1954803466797) rotate(0 0.3577509741252243 30.344568070368865)"><path d="M-0.59 0.85 C-0.57 10.63, 0.14 49.23, 0.17 58.99 M1.3 0.25 C1.23 10.19, 0.08 50.33, -0.31 60.44" stroke="#1e1e1e" stroke-width="1" fill="none"></path></g></g><mask></mask><g stroke-linecap="round" transform="translate(726.0075988769531 110.13743591308594) rotate(0 40.255615234375 75.54269409179688)"><path d="M20.13 0 M20.13 0 C34.32 -1.53, 48.27 1.64, 60.38 0 M20.13 0 C29.45 -0.85, 40.64 -0.26, 60.38 0 M60.38 0 C72.53 -0.78, 81.77 7.8, 80.51 20.13 M60.38 0 C74.09 1.91, 79.77 8.68, 80.51 20.13 M80.51 20.13 C80.07 54.82, 81.15 89.77, 80.51 130.96 M80.51 20.13 C79.99 44.98, 80.5 70.23, 80.51 130.96 M80.51 130.96 C80.06 143.46, 74.89 149.32, 60.38 151.09 M80.51 130.96 C82.68 142.09, 72.06 150.07, 60.38 151.09 M60.38 151.09 C44.73 151.45, 32.15 151.65, 20.13 151.09 M60.38 151.09 C46.41 150.89, 32.88 150.91, 20.13 151.09 M20.13 151.09 C7.13 151.04, 1.77 142.62, 0 130.96 M20.13 151.09 C7.43 149.44, -0.51 142.55, 0 130.96 M0 130.96 C-2.38 109.6, -0.59 86.47, 0 20.13 M0 130.96 C-1.02 92.99, -0.42 55.04, 0 20.13 M0 20.13 C-1.75 8.45, 6.88 -0.63, 20.13 0 M0 20.13 C1.97 8.46, 7.35 -0.71, 20.13 0" stroke="#1e1e1e" stroke-width="1" fill="none"></path></g><g transform="translate(732.9232330322266 160.6801300048828) rotate(0 33.33998107910156 25)"><text x="33.33998107910156" y="0" font-family="Virgil, Segoe UI Emoji" font-size="20px" fill="#1e1e1e" text-anchor="middle" style="white-space: pre;" direction="ltr" dominant-baseline="text-before-edge">D0..D7</text><text x="33.33998107910156" y="25" font-family="Virgil, Segoe UI Emoji" font-size="20px" fill="#1e1e1e" text-anchor="middle" style="white-space: pre;" direction="ltr" dominant-baseline="text-before-edge">Low</text></g><g stroke-linecap="round"><g transform="translate(764.2335205078125 47.99220275878906) rotate(0 -0.6133442925682857 32.1860676270211)"><path d="M-0.02 -0.93 C-0.01 9.61, 0.29 53.1, 0.27 64.15 M-1.49 1.19 C-1.61 11.79, -0.5 54.95, -0.4 65.3" stroke="#1e1e1e" stroke-width="1" fill="none"></path></g></g><mask></mask><g stroke-linecap="round"><g transform="translate(769.73974609375 266.7579803466797) rotate(0 -1.0300133719910605 28.163619874948637)"><path d="M0.01 0.14 C-0.36 9.35, -1.01 46.74, -1.61 56.11 M-1.45 -0.83 C-1.94 8.43, -2.1 47.46, -2.06 57.16" stroke="#1e1e1e" stroke-width="1" fill="none"></path></g></g><mask></mask><g stroke-linecap="round" transform="translate(16.538970984375055 327.69496154785156) rotate(0 506.605033855957 17.5)"><path d="M8.75 0 M8.75 0 C299.66 -0.88, 591.38 -0.67, 1004.46 0 M8.75 0 C276.33 -2.72, 543.75 -2.32, 1004.46 0 M1004.46 0 C1009.8 0.25, 1011.57 2.68, 1013.21 8.75 M1004.46 0 C1010.28 -0.51, 1013.4 1.76, 1013.21 8.75 M1013.21 8.75 C1013.79 12.12, 1011.76 17.15, 1013.21 26.25 M1013.21 8.75 C1013.06 13.11, 1012.66 17.31, 1013.21 26.25 M1013.21 26.25 C1013.67 33.22, 1012.24 35.59, 1004.46 35 M1013.21 26.25 C1011.27 29.81, 1010.14 35.52, 1004.46 35 M1004.46 35 C720.38 37.86, 436.58 37.39, 8.75 35 M1004.46 35 C667.23 34.02, 329.75 33.61, 8.75 35 M8.75 35 C4.67 33.28, -0.02 33.85, 0 26.25 M8.75 35 C4.66 33.44, 0.13 32.92, 0 26.25 M0 26.25 C-0.34 21.67, -1.28 19.14, 0 8.75 M0 26.25 C0.79 21.82, 0.35 17.41, 0 8.75 M0 8.75 C1.9 3.58, 1.8 1.01, 8.75 0 M0 8.75 C1.85 3.22, 3.04 0.14, 8.75 0" stroke="#1e1e1e" stroke-width="1" fill="none"></path></g><g transform="translate(441.1840515322267 332.69496154785156) rotate(0 81.95995330810547 12.5)"><text x="81.95995330810547" y="0" font-family="Virgil, Segoe UI Emoji" font-size="20px" fill="#1e1e1e" text-anchor="middle" style="white-space: pre;" direction="ltr" dominant-baseline="text-before-edge">Data Bus Data</text></g><g stroke-linecap="round"><g transform="translate(250.468994140625 43.4967041015625) rotate(0 -1.318728527664348 36.338188208537176)"><path d="M-0.19 0.15 C-0.34 12.17, -1.23 60.17, -1.35 72.13 M-1.75 -0.81 C-2.05 11.37, -2.48 61.2, -2.44 73.49" stroke="#1e1e1e" stroke-width="1" fill="none"></path></g><g transform="translate(250.468994140625 43.4967041015625) rotate(0 -1.318728527664348 36.338188208537176)"><path d="M-12.34 44.78 C-10.47 53.06, -8.14 61.88, -3.4 72.86 M-12.4 45.44 C-9.26 55.46, -4.19 66.82, -2.07 74.02" stroke="#1e1e1e" stroke-width="1" fill="none"></path></g><g transform="translate(250.468994140625 43.4967041015625) rotate(0 -1.318728527664348 36.338188208537176)"><path d="M8.18 44.86 C4.63 53.09, 1.55 61.88, -3.4 72.86 M8.12 45.52 C3.63 55.35, 1.08 66.68, -2.07 74.02" stroke="#1e1e1e" stroke-width="1" fill="none"></path></g></g><mask></mask><g stroke-linecap="round"><g transform="translate(247.77667236328125 246.65931701660156) rotate(0 0.6520464001362996 39.517763008922344)"><path d="M0.92 -0.89 C1.27 12.29, 1.16 66.44, 1.37 79.93 M-0.06 1.25 C0.16 14, -0.09 65.24, 0.19 78.03" stroke="#1e1e1e" stroke-width="1" fill="none"></path></g></g><mask></mask><g stroke-linecap="round"><g transform="translate(505.39688741053976 49.2666015625) rotate(0 0.46085248044221316 27.836452794270585)"><path d="M-1.11 -0.16 C-1.1 9.3, -0.6 46.44, -0.23 55.7 M0.5 -1.29 C0.93 8.42, 2.02 47.36, 2.04 56.96" stroke="#1e1e1e" stroke-width="1" fill="none"></path></g><g transform="translate(505.39688741053976 49.2666015625) rotate(0 0.46085248044221316 27.836452794270585)"><path d="M-8.3 29.3 C-6.43 38.72, -4.13 43.19, 1.92 56.37 M-8.67 30.75 C-6.24 37.76, -3.73 44.47, 2.05 57.55" stroke="#1e1e1e" stroke-width="1" fill="none"></path></g><g transform="translate(505.39688741053976 49.2666015625) rotate(0 0.46085248044221316 27.836452794270585)"><path d="M10.93 28.96 C7.59 38.3, 4.68 42.86, 1.92 56.37 M10.56 30.42 C8.01 37.5, 5.55 44.3, 2.05 57.55" stroke="#1e1e1e" stroke-width="1" fill="none"></path></g></g><mask></mask><g stroke-linecap="round"><g transform="translate(504.3559896502245 326.1459197998047) rotate(0 -0.5513702880979281 -33.00695465165654)"><path d="M1.17 0.62 C0.94 -10.1, -0.94 -53.78, -1.16 -64.89 M0.32 -0.1 C-0.12 -11.11, -2.13 -55.82, -2.27 -66.64" stroke="#1e1e1e" stroke-width="1" fill="none"></path></g><g transform="translate(504.3559896502245 326.1459197998047) rotate(0 -0.5513702880979281 -33.00695465165654)"><path d="M9.91 -39.31 C6.64 -46.42, 1.11 -54.62, -3.47 -67.68 M8.52 -39.41 C4.94 -48.32, -0.5 -60.74, -2.24 -66.84" stroke="#1e1e1e" stroke-width="1" fill="none"></path></g><g transform="translate(504.3559896502245 326.1459197998047) rotate(0 -0.5513702880979281 -33.00695465165654)"><path d="M-10.6 -38.66 C-7.3 -46.18, -6.27 -54.59, -3.47 -67.68 M-11.99 -38.76 C-7.77 -48.07, -5.42 -60.74, -2.24 -66.84" stroke="#1e1e1e" stroke-width="1" fill="none"></path></g></g><mask></mask><g stroke-linecap="round"><g transform="translate(333.5072021484375 286.3724380710511) rotate(0 -40.125091073675236 -18.85408113720129)"><path d="M0.76 -0.27 C-7.96 -0.14, -37.79 8.95, -51.25 1.95 C-64.71 -5.06, -75.37 -35.15, -80.01 -42.3 M-0.31 -1.46 C-9.25 -1.19, -38.62 6.74, -52.07 0.06 C-65.52 -6.62, -76.59 -34.91, -81.01 -41.54" stroke="#1e1e1e" stroke-width="1" fill="none"></path></g><g transform="translate(333.5072021484375 286.3724380710511) rotate(0 -40.125091073675236 -18.85408113720129)"><path d="M-62.46 -24.01 C-68.8 -31.66, -78.66 -36.76, -80.53 -42.79 M-62.2 -24.74 C-70.08 -30.7, -75.7 -38.46, -81.56 -42" stroke="#1e1e1e" stroke-width="1" fill="none"></path></g><g transform="translate(333.5072021484375 286.3724380710511) rotate(0 -40.125091073675236 -18.85408113720129)"><path d="M-77.91 -15.8 C-78.33 -26.74, -82.2 -35.02, -80.53 -42.79 M-77.65 -16.53 C-79.69 -25.61, -79.43 -36.5, -81.56 -42" stroke="#1e1e1e" stroke-width="1" fill="none"></path></g></g><mask></mask><g stroke-linecap="round"><g transform="translate(469.7750549316406 178.7296600341797) rotate(0 -105.4758806312031 -50.08088602344874)"><path d="M-0.36 0.97 C-21.08 -15.52, -88.32 -88.04, -123.52 -99.15 C-158.72 -110.26, -196.81 -71.39, -211.54 -65.7 M1.66 0.44 C-19.26 -15.83, -88.53 -86.79, -124.24 -97.63 C-159.96 -108.47, -197.95 -70.27, -212.61 -64.63" stroke="#1e1e1e" stroke-width="1" fill="none"></path></g><g transform="translate(469.7750549316406 178.7296600341797) rotate(0 -105.4758806312031 -50.08088602344874)"><path d="M-192.45 -87.5 C-201.02 -80.51, -208.56 -72.48, -212.19 -65.65 M-194.44 -87.4 C-200.12 -80.37, -205.8 -72.45, -213.02 -65.27" stroke="#1e1e1e" stroke-width="1" fill="none"></path></g><g transform="translate(469.7750549316406 178.7296600341797) rotate(0 -105.4758806312031 -50.08088602344874)"><path d="M-181.62 -70.06 C-194.15 -69.54, -205.69 -67.94, -212.19 -65.65 M-183.62 -69.97 C-192.79 -68.59, -202 -66.37, -213.02 -65.27" stroke="#1e1e1e" stroke-width="1" fill="none"></path></g></g><mask></mask><g stroke-linecap="round" transform="translate(27.8358154296875 208.82362365722656) rotate(0 65.33757019042969 42.5)"><path d="M21.25 0 M21.25 0 C52.15 2.56, 80.75 -0.74, 109.43 0 M21.25 0 C50.11 0.46, 79.73 0.44, 109.43 0 M109.43 0 C124.67 1.83, 130.51 5.35, 130.68 21.25 M109.43 0 C124.7 1.35, 129.28 8.92, 130.68 21.25 M130.68 21.25 C128.99 30.82, 128.82 41.22, 130.68 63.75 M130.68 21.25 C131.98 32.07, 131.7 42.11, 130.68 63.75 M130.68 63.75 C131.47 79.21, 122.37 84.26, 109.43 85 M130.68 63.75 C130.2 76.92, 124.68 85.8, 109.43 85 M109.43 85 C74.33 86.4, 38.99 85.17, 21.25 85 M109.43 85 C74.73 85.01, 38.82 84.5, 21.25 85 M21.25 85 C5.94 83.5, -1.89 76.75, 0 63.75 M21.25 85 C5.47 83.36, -1.88 77.25, 0 63.75 M0 63.75 C0.19 53.18, -1.28 41.07, 0 21.25 M0 63.75 C0.54 51.58, 0.72 38.42, 0 21.25 M0 21.25 C-1.43 6.26, 6.04 -0.43, 21.25 0 M0 21.25 C-1.62 6.34, 7.87 -0.88, 21.25 0" stroke="#1e1e1e" stroke-width="1" fill="none"></path></g><g transform="translate(44.56342315673828 213.82362365722656) rotate(0 48.609962463378906 37.5)"><text x="48.609962463378906" y="0" font-family="Virgil, Segoe UI Emoji" font-size="20px" fill="#1e1e1e" text-anchor="middle" style="white-space: pre;" direction="ltr" dominant-baseline="text-before-edge">Alu </text><text x="48.609962463378906" y="25" font-family="Virgil, Segoe UI Emoji" font-size="20px" fill="#1e1e1e" text-anchor="middle" style="white-space: pre;" direction="ltr" dominant-baseline="text-before-edge">Extender </text><text x="48.609962463378906" y="50" font-family="Virgil, Segoe UI Emoji" font-size="20px" fill="#1e1e1e" text-anchor="middle" style="white-space: pre;" direction="ltr" dominant-baseline="text-before-edge">(ALUE)</text></g><g stroke-linecap="round"><g transform="translate(87.9140625 297.4916534423828) rotate(0 -0.45484665408730507 14.412491596573972)"><path d="M1.15 1.07 C0.94 5.41, -1.66 22.46, -2.06 27.08 M0.3 0.58 C0.53 4.98, 0.61 23.84, 0.22 28.25" stroke="#1e1e1e" stroke-width="1" fill="none"></path></g></g><mask></mask><g stroke-linecap="round"><g transform="translate(158.979248046875 265.40016174316406) rotate(0 40.375704219192244 -1.3693378609570175)"><path d="M-1.03 0.4 C7.89 2.59, 39.29 15.35, 53.09 12.77 C66.89 10.19, 76.99 -10.33, 81.78 -15.11 M0.64 -0.43 C9.96 1.94, 41.94 16.77, 55.36 13.99 C68.77 11.22, 76.66 -12.28, 81.14 -17.08" stroke="#1e1e1e" stroke-width="1" fill="none"></path></g><g transform="translate(158.979248046875 265.40016174316406) rotate(0 40.375704219192244 -1.3693378609570175)"><path d="M77.95 1.23 C77.36 -2.18, 80.57 -7.35, 81.05 -16.98 M77.7 2.71 C79.3 -2.63, 78.59 -8.22, 80.93 -17.67" stroke="#1e1e1e" stroke-width="1" fill="none"></path></g><g transform="translate(158.979248046875 265.40016174316406) rotate(0 40.375704219192244 -1.3693378609570175)"><path d="M66.18 -5.86 C68.71 -7.28, 75.05 -10.57, 81.05 -16.98 M65.93 -4.38 C71.08 -7.62, 73.87 -11.1, 80.93 -17.67" stroke="#1e1e1e" stroke-width="1" fill="none"></path></g></g><mask></mask><g stroke-linecap="round" transform="translate(845.9552001953125 111.29130554199219) rotate(0 68.459716796875 80)"><path d="M32 0 M32 0 C53.71 -1.37, 70.93 1.61, 104.92 0 M32 0 C52.79 -0.54, 71.12 -0.67, 104.92 0 M104.92 0 C125.64 -1.51, 137.09 11.74, 136.92 32 M104.92 0 C127.38 -2.07, 137.79 12, 136.92 32 M136.92 32 C136 67.35, 134.4 102.36, 136.92 128 M136.92 32 C136.85 62.93, 136.63 92.28, 136.92 128 M136.92 128 C137.57 150.77, 124.29 159.25, 104.92 160 M136.92 128 C137.42 149.47, 127.35 161.54, 104.92 160 M104.92 160 C90.03 158.33, 72.35 161.16, 32 160 M104.92 160 C78.52 159.05, 51.72 160.31, 32 160 M32 160 C9.44 158.8, -0.02 150.71, 0 128 M32 160 C9.98 159.25, 1.38 150.68, 0 128 M0 128 C2.04 92.1, -0.16 54.79, 0 32 M0 128 C0.35 102.29, 0.53 75.66, 0 32 M0 32 C1.77 10.88, 11.26 1.19, 32 0 M0 32 C0.8 8.51, 8.52 -0.29, 32 0" stroke="#1e1e1e" stroke-width="1" fill="none"></path></g><g transform="translate(855.2649688720703 141.2913055419922) rotate(0 59.14994812011719 50)"><text x="59.14994812011719" y="0" font-family="Virgil, Segoe UI Emoji" font-size="20px" fill="#1e1e1e" text-anchor="middle" style="white-space: pre;" direction="ltr" dominant-baseline="text-before-edge">Bit </text><text x="59.14994812011719" y="25" font-family="Virgil, Segoe UI Emoji" font-size="20px" fill="#1e1e1e" text-anchor="middle" style="white-space: pre;" direction="ltr" dominant-baseline="text-before-edge">Manipulation</text><text x="59.14994812011719" y="50" font-family="Virgil, Segoe UI Emoji" font-size="20px" fill="#1e1e1e" text-anchor="middle" style="white-space: pre;" direction="ltr" dominant-baseline="text-before-edge">Decoder </text><text x="59.14994812011719" y="75" font-family="Virgil, Segoe UI Emoji" font-size="20px" fill="#1e1e1e" text-anchor="middle" style="white-space: pre;" direction="ltr" dominant-baseline="text-before-edge">(DCR)</text></g><g stroke-linecap="round"><g transform="translate(911.1858520507812 46.45533752441406) rotate(0 -0.47383191495134724 34.133833463387575)"><path d="M-0.08 1.12 C-0.02 12.09, 0.73 55.15, 0.62 66.02 M-1.58 0.67 C-1.62 11.82, 0.19 57.02, 0.16 67.6" stroke="#1e1e1e" stroke-width="1" fill="none"></path></g></g><mask></mask><g stroke-linecap="round"><g transform="translate(917.8515014648438 273.83226013183594) rotate(0 0.342375694205316 25.652883646637207)"><path d="M-0.62 -1.02 C-0.39 7.82, 0.71 43.63, 0.63 52.33 M1.26 1.05 C1.48 9.6, 0.84 41.92, 0.27 50.43" stroke="#1e1e1e" stroke-width="1" fill="none"></path></g></g><mask></mask></svg>