<svg version="1.1" xmlns="http://www.w3.org/2000/svg" viewBox="0 0 1008.6978853280377 372.9263000488281" width="1008.6978853280377" height="372.9263000488281">
  <!-- svg-source:excalidraw -->
  
  <defs>
    <style class="style-fonts">
      @font-face {
        font-family: "Virgil";
        src: url("https://excalidraw.com/Virgil.woff2");
      }
      @font-face {
        font-family: "Cascadia";
        src: url("https://excalidraw.com/Cascadia.woff2");
      }
    </style>
    
  </defs>
  <g stroke-linecap="round" transform="translate(12.278961181640625 10) rotate(0 456.14015197753906 17.5)"><path d="M8.75 0 M8.75 0 C239.65 -1.44, 470.81 -1.16, 903.53 0 M8.75 0 C223.53 1.7, 438.49 2.14, 903.53 0 M903.53 0 C910.21 0.12, 913.35 1.52, 912.28 8.75 M903.53 0 C908.86 -1.72, 914.28 0.84, 912.28 8.75 M912.28 8.75 C911.84 11.61, 910.78 15.18, 912.28 26.25 M912.28 8.75 C912.31 13.29, 912.22 18.41, 912.28 26.25 M912.28 26.25 C912.91 31.9, 910.86 36.28, 903.53 35 M912.28 26.25 C914.22 33.18, 908.51 36.6, 903.53 35 M903.53 35 C587.23 37.39, 269.7 37.29, 8.75 35 M903.53 35 C716.38 33.87, 529.62 33.52, 8.75 35 M8.75 35 C4.28 33.23, -1.24 33.92, 0 26.25 M8.75 35 C4.33 33.47, 0.72 32.47, 0 26.25 M0 26.25 C-0.35 18.5, -0.68 13.22, 0 8.75 M0 26.25 C0.57 22.04, 0.66 16.29, 0 8.75 M0 8.75 C-1.37 3.64, 1.07 -1.8, 8.75 0 M0 8.75 C1.86 2.65, 2.63 -1.19, 8.75 0" stroke="#1e1e1e" stroke-width="1" fill="none"></path></g><g transform="translate(383.84918212890625 15) rotate(0 84.56993103027344 12.5)"><text x="84.56993103027344" y="0" font-family="Virgil, Segoe UI Emoji" font-size="20px" fill="#1e1e1e" text-anchor="middle" style="white-space: pre;" direction="ltr" dominant-baseline="text-before-edge">Address Bus Low</text></g><g stroke-linecap="round" transform="translate(53.91395568847656 119.42410278320312) rotate(0 69.442626953125 62.360870361328125)"><path d="M31.18 0 M31.18 0 C55.93 -2.42, 81.88 0.08, 107.7 0 M31.18 0 C55.5 0.63, 79.4 -0.47, 107.7 0 M107.7 0 C130.19 -0.95, 138.32 10.97, 138.89 31.18 M107.7 0 C130.64 1.58, 139.65 11.45, 138.89 31.18 M138.89 31.18 C137.88 49.73, 139.51 71.82, 138.89 93.54 M138.89 31.18 C139.84 47.23, 138.79 63.08, 138.89 93.54 M138.89 93.54 C137.43 113.89, 129.26 125.54, 107.7 124.72 M138.89 93.54 C139.44 113.78, 130.53 124.21, 107.7 124.72 M107.7 124.72 C82.79 126.21, 55.49 123.69, 31.18 124.72 M107.7 124.72 C77.26 123.87, 49.28 125.23, 31.18 124.72 M31.18 124.72 C10.35 124.26, -1.88 114.81, 0 93.54 M31.18 124.72 C11.03 122.42, 0.98 115.81, 0 93.54 M0 93.54 C1.3 75.91, -1.51 57.39, 0 31.18 M0 93.54 C-0.55 79.27, -1.33 65.93, 0 31.18 M0 31.18 C1.72 10.66, 9.17 -0.34, 31.18 0 M0 31.18 C1.39 11.97, 11.86 0.86, 31.18 0" stroke="#1e1e1e" stroke-width="1" fill="none"></path></g><g transform="translate(70.05663299560547 156.78497314453125) rotate(0 53.299949645996094 25)"><text x="53.299949645996094" y="0" font-family="Virgil, Segoe UI Emoji" font-size="20px" fill="#1e1e1e" text-anchor="middle" style="white-space: pre;" direction="ltr" dominant-baseline="text-before-edge">Arithmetic </text><text x="53.299949645996094" y="25" font-family="Virgil, Segoe UI Emoji" font-size="20px" fill="#1e1e1e" text-anchor="middle" style="white-space: pre;" direction="ltr" dominant-baseline="text-before-edge">Unit Low</text></g><g stroke-linecap="round" transform="translate(201.7698516845703 64.05322265625) rotate(0 60.82830810546875 30)"><path d="M15 0 M15 0 C48.37 -0.48, 80.05 2.09, 106.66 0 M15 0 C32.63 -1.18, 52.05 -1.3, 106.66 0 M106.66 0 C116.05 -1.16, 123.09 5.48, 121.66 15 M106.66 0 C115.36 -1.86, 120.41 6.9, 121.66 15 M121.66 15 C120.46 27.62, 121.85 37.35, 121.66 45 M121.66 15 C121.14 27.11, 121.1 39.14, 121.66 45 M121.66 45 C122.96 55.72, 118.06 59.25, 106.66 60 M121.66 45 C119.99 54.71, 118.48 58.26, 106.66 60 M106.66 60 C81.82 61.16, 58.93 60.21, 15 60 M106.66 60 C75.4 60.39, 46.79 59.91, 15 60 M15 60 C6.41 59.17, 0.99 55.72, 0 45 M15 60 C3.81 61.33, -1.2 55.94, 0 45 M0 45 C-0.73 36.01, -1.65 27.08, 0 15 M0 45 C-0.03 35.37, -0.83 23.01, 0 15 M0 15 C1.16 4.2, 5.35 1.46, 15 0 M0 15 C-0.69 5.45, 7.07 1.42, 15 0" stroke="#1e1e1e" stroke-width="1" fill="none"></path></g><g transform="translate(207.44820404052734 69.05322265625) rotate(0 55.14995574951172 25)"><text x="55.14995574951172" y="0" font-family="Virgil, Segoe UI Emoji" font-size="20px" fill="#1e1e1e" text-anchor="middle" style="white-space: pre;" direction="ltr" dominant-baseline="text-before-edge">Constants </text><text x="55.14995574951172" y="25" font-family="Virgil, Segoe UI Emoji" font-size="20px" fill="#1e1e1e" text-anchor="middle" style="white-space: pre;" direction="ltr" dominant-baseline="text-before-edge">ROM (K)</text></g><g stroke-linecap="round" transform="translate(350.7121124267578 103.51425170898438) rotate(0 31.48614501953125 76.74847412109375)"><path d="M15.74 0 M15.74 0 C24.92 -1.95, 30.11 0.64, 47.23 0 M15.74 0 C26.98 -1.3, 37.46 -0.02, 47.23 0 M47.23 0 C56.18 1.77, 61.47 5.78, 62.97 15.74 M47.23 0 C56.45 0.82, 63.26 6.68, 62.97 15.74 M62.97 15.74 C60.99 56.21, 62.57 97.53, 62.97 137.75 M62.97 15.74 C64.31 48.83, 63.12 81.73, 62.97 137.75 M62.97 137.75 C64.89 149.53, 55.96 154.57, 47.23 153.5 M62.97 137.75 C64.07 146.16, 56.54 155.14, 47.23 153.5 M47.23 153.5 C34.34 154.93, 25.71 153.53, 15.74 153.5 M47.23 153.5 C37.7 154.32, 27.59 154.19, 15.74 153.5 M15.74 153.5 C4.78 153.81, -0.13 149.22, 0 137.75 M15.74 153.5 C5.52 154.99, -1.45 149.53, 0 137.75 M0 137.75 C0.28 99.22, -0.41 64.73, 0 15.74 M0 137.75 C-1.4 110.42, -1.04 84.13, 0 15.74 M0 15.74 C-1.32 3.35, 3.71 0.44, 15.74 0 M0 15.74 C1.34 4.81, 3.97 -0.41, 15.74 0" stroke="#1e1e1e" stroke-width="1" fill="none"></path></g><g transform="translate(364.1482696533203 155.26272583007812) rotate(0 18.04998779296875 25)"><text x="18.04998779296875" y="0" font-family="Virgil, Segoe UI Emoji" font-size="20px" fill="#1e1e1e" text-anchor="middle" style="white-space: pre;" direction="ltr" dominant-baseline="text-before-edge">PC </text><text x="18.04998779296875" y="25" font-family="Virgil, Segoe UI Emoji" font-size="20px" fill="#1e1e1e" text-anchor="middle" style="white-space: pre;" direction="ltr" dominant-baseline="text-before-edge">Low</text></g><g stroke-linecap="round"><g transform="translate(382.82569885253906 47.014434814453125) rotate(0 -0.32373428204095944 28.671511907395896)"><path d="M-0.89 -1.19 C-0.88 8.4, -0.64 47.44, -0.32 57.26 M0.84 0.8 C0.69 10.57, -1.48 48.82, -1.49 58.53" stroke="#1e1e1e" stroke-width="1" fill="none"></path></g></g><mask></mask><g stroke-linecap="round"><g transform="translate(384.2881622314453 259.3495178222656) rotate(0 -0.1698253307584423 32.84192526661789)"><path d="M-0.6 1.03 C-0.61 11.49, -0.83 53.4, -0.76 63.91 M1.28 0.52 C1.19 11.65, -1.32 54.38, -1.62 65.16" stroke="#1e1e1e" stroke-width="1" fill="none"></path></g></g><mask></mask><g stroke-linecap="round"><g transform="translate(384.2881622314453 259.1165466308594) rotate(0 -0.6916808799142018 31.515992739298383)"><path d="M-0.2 -0.5 C-0.55 10.39, -1.78 53.83, -1.81 64.84 M-1.76 -1.81 C-1.77 8.76, 0.28 51.98, 0.43 62.91" stroke="#1e1e1e" stroke-width="1" fill="none"></path></g></g><mask></mask><g stroke-linecap="round" transform="translate(433.2893829345703 107.52093505859375) rotate(0 58.002655029296875 76.74847412109375)"><path d="M29 0 M29 0 C41.28 0.82, 55.79 -0.96, 87 0 M29 0 C41.93 -0.53, 54.92 0.04, 87 0 M87 0 C107.37 1.08, 117.1 8.26, 116.01 29 M87 0 C105.31 0.75, 115.79 9.54, 116.01 29 M116.01 29 C117.04 53.78, 114.27 79.63, 116.01 124.5 M116.01 29 C115.01 49.74, 115.86 67.64, 116.01 124.5 M116.01 124.5 C115.68 142.46, 107.04 155.33, 87 153.5 M116.01 124.5 C116.39 146.09, 107 154.88, 87 153.5 M87 153.5 C75.37 151.07, 61.92 151.33, 29 153.5 M87 153.5 C65.96 153.8, 43.33 152.48, 29 153.5 M29 153.5 C9.85 154.09, 0.08 143.49, 0 124.5 M29 153.5 C8.33 155.1, 0.96 141.97, 0 124.5 M0 124.5 C-0.51 95.18, 0.94 63.94, 0 29 M0 124.5 C-1.05 99.99, -0.77 72.83, 0 29 M0 29 C-1.35 11.15, 10.36 1.56, 29 0 M0 29 C2.07 10.82, 11.84 -0.35, 29 0" stroke="#1e1e1e" stroke-width="1" fill="none"></path></g><g transform="translate(440.5520706176758 146.7694091796875) rotate(0 50.739967346191406 37.5)"><text x="50.739967346191406" y="0" font-family="Virgil, Segoe UI Emoji" font-size="20px" fill="#1e1e1e" text-anchor="middle" style="white-space: pre;" direction="ltr" dominant-baseline="text-before-edge">Address </text><text x="50.739967346191406" y="25" font-family="Virgil, Segoe UI Emoji" font-size="20px" fill="#1e1e1e" text-anchor="middle" style="white-space: pre;" direction="ltr" dominant-baseline="text-before-edge">Temporary</text><text x="50.739967346191406" y="50" font-family="Virgil, Segoe UI Emoji" font-size="20px" fill="#1e1e1e" text-anchor="middle" style="white-space: pre;" direction="ltr" dominant-baseline="text-before-edge">Low (ATL)</text></g><g stroke-linecap="round"><g transform="translate(492.20680236816406 50.459625244140625) rotate(0 -1.033330633491289 28.634856953471896)"><path d="M0.72 -0.77 C0.34 9, -2.31 48.49, -2.79 58.04 M-0.36 1.44 C-0.33 10.89, -0.11 46.81, -0.56 56.12" stroke="#1e1e1e" stroke-width="1" fill="none"></path></g></g><mask></mask><g stroke-linecap="round"><g transform="translate(490.6005401611328 260.8904113769531) rotate(0 0.07722936581529893 31.607876942306774)"><path d="M0.73 -0.83 C0.83 9.87, 0.36 53.47, 0.35 64.04 M-0.34 1.35 C-0.38 11.68, -0.65 51.74, -0.58 62.07" stroke="#1e1e1e" stroke-width="1" fill="none"></path></g></g><mask></mask><g stroke-linecap="round" transform="translate(567.3354034423828 109.68267822265625) rotate(0 35.947174072265625 75.54269409179688)"><path d="M17.97 0 M17.97 0 C25.53 1.71, 35.91 -0.75, 53.92 0 M17.97 0 C27.2 -0.44, 36.71 0.85, 53.92 0 M53.92 0 C67.83 -1.85, 70.26 7.65, 71.89 17.97 M53.92 0 C67.86 -0.9, 73.72 5.92, 71.89 17.97 M71.89 17.97 C71.76 42.09, 70.75 67.69, 71.89 133.11 M71.89 17.97 C72.95 51.31, 72.96 83.83, 71.89 133.11 M71.89 133.11 C73.87 143.47, 65.46 149.12, 53.92 151.09 M71.89 133.11 C73.42 143.52, 68.15 149.99, 53.92 151.09 M53.92 151.09 C48.06 151.94, 38.55 149.02, 17.97 151.09 M53.92 151.09 C43.88 151.11, 31.64 150.58, 17.97 151.09 M17.97 151.09 C5.45 151.56, 1.3 144.74, 0 133.11 M17.97 151.09 C7.68 149.62, 0.88 144.24, 0 133.11 M0 133.11 C-2.61 92.9, -1.62 48.75, 0 17.97 M0 133.11 C0.49 108.25, 1.04 84.53, 0 17.97 M0 17.97 C0.53 5.04, 6.86 -1.73, 17.97 0 M0 17.97 C-1.28 3.8, 4.43 -0.44, 17.97 0" stroke="#1e1e1e" stroke-width="1" fill="none"></path></g><g transform="translate(572.4225921630859 160.22537231445312) rotate(0 30.8599853515625 25)"><text x="30.8599853515625" y="0" font-family="Virgil, Segoe UI Emoji" font-size="20px" fill="#1e1e1e" text-anchor="middle" style="white-space: pre;" direction="ltr" dominant-baseline="text-before-edge">A0..A7</text><text x="30.8599853515625" y="25" font-family="Virgil, Segoe UI Emoji" font-size="20px" fill="#1e1e1e" text-anchor="middle" style="white-space: pre;" direction="ltr" dominant-baseline="text-before-edge">Low</text></g><g stroke-linecap="round"><g transform="translate(601.3491973876953 46.5682373046875) rotate(0 -0.5602474504941597 32.85464428682812)"><path d="M0.58 0.46 C0.36 11.36, -0.87 54.23, -1.28 65.11 M-0.57 -0.34 C-0.87 10.68, -1.39 54.85, -1.7 66.05" stroke="#1e1e1e" stroke-width="1" fill="none"></path></g></g><mask></mask><g stroke-linecap="round"><g transform="translate(603.3963165283203 265.02099609375) rotate(0 -0.41327150002030066 29.063060429925088)"><path d="M0.66 0.53 C0.7 10.05, -0.36 47.65, -0.41 57.28 M-0.45 -0.23 C-0.53 9.4, -1.54 48.36, -1.49 58.36" stroke="#1e1e1e" stroke-width="1" fill="none"></path></g></g><mask></mask><g stroke-linecap="round"><g transform="translate(716.9587554931641 268.0940246582031) rotate(0 -1.0300133719910605 28.163619874948637)"><path d="M0.01 0.14 C-0.36 9.35, -1.01 46.74, -1.61 56.11 M-1.45 -0.83 C-1.94 8.43, -2.1 47.46, -2.06 57.16" stroke="#1e1e1e" stroke-width="1" fill="none"></path></g></g><mask></mask><g stroke-linecap="round" transform="translate(10 327.9263000488281) rotate(0 454.1219940185546 17.5)"><path d="M8.75 0 M8.75 0 C268.93 -0.83, 529.91 -0.62, 899.49 0 M8.75 0 C248.13 -2.44, 487.35 -2.03, 899.49 0 M899.49 0 C904.83 0.25, 906.6 2.68, 908.24 8.75 M899.49 0 C905.31 -0.51, 908.43 1.76, 908.24 8.75 M908.24 8.75 C908.83 12.12, 906.8 17.15, 908.24 26.25 M908.24 8.75 C908.09 13.11, 907.7 17.31, 908.24 26.25 M908.24 26.25 C908.7 33.22, 907.28 35.59, 899.49 35 M908.24 26.25 C906.3 29.81, 905.18 35.52, 899.49 35 M899.49 35 C645.34 37.54, 391.47 37.07, 8.75 35 M899.49 35 C597.81 34.15, 295.88 33.75, 8.75 35 M8.75 35 C4.67 33.28, -0.02 33.85, 0 26.25 M8.75 35 C4.66 33.44, 0.13 32.92, 0 26.25 M0 26.25 C-0.34 21.67, -1.28 19.14, 0 8.75 M0 26.25 C0.79 21.82, 0.35 17.41, 0 8.75 M0 8.75 C1.9 3.58, 1.8 1.01, 8.75 0 M0 8.75 C1.85 3.22, 3.04 0.14, 8.75 0" stroke="#1e1e1e" stroke-width="1" fill="none"></path></g><g transform="translate(391.3320388793944 332.9263000488281) rotate(0 72.78995513916016 12.5)"><text x="72.78995513916016" y="0" font-family="Virgil, Segoe UI Emoji" font-size="20px" fill="#1e1e1e" text-anchor="middle" style="white-space: pre;" direction="ltr" dominant-baseline="text-before-edge">Data Bus Low</text></g><g stroke-linecap="round"><g transform="translate(136.78627014160156 248.30221557617188) rotate(0 117.46146222454959 27.31619057530014)"><path d="M0.21 0.61 C23.84 9.56, 103.04 51.46, 142.35 53.4 C181.66 55.33, 220.43 19.15, 236.07 12.23 M-1.14 -0.12 C22.36 9.03, 102.54 52.45, 141.93 54.66 C181.32 56.87, 219.44 20.17, 235.19 13.11" stroke="#1e1e1e" stroke-width="1" fill="none"></path></g><g transform="translate(136.78627014160156 248.30221557617188) rotate(0 117.46146222454959 27.31619057530014)"><path d="M217.92 38.56 C222.47 28.23, 228.33 20.16, 233.19 13.88 M216.99 35.94 C223.22 27.16, 230.71 18.73, 235.41 13.51" stroke="#1e1e1e" stroke-width="1" fill="none"></path></g><g transform="translate(136.78627014160156 248.30221557617188) rotate(0 117.46146222454959 27.31619057530014)"><path d="M206.9 21.25 C215.24 16.92, 224.93 14.87, 233.19 13.88 M205.97 18.62 C216.19 16.01, 227.66 13.85, 235.41 13.51" stroke="#1e1e1e" stroke-width="1" fill="none"></path></g></g><mask></mask><g stroke-linecap="round"><g transform="translate(124.56990051269531 43.72804260253906) rotate(0 -1.2875038274928556 36.338188208537176)"><path d="M-0.19 0.15 C-0.33 12.17, -1.18 60.17, -1.28 72.13 M-1.75 -0.81 C-2.04 11.37, -2.43 61.2, -2.38 73.49" stroke="#1e1e1e" stroke-width="1" fill="none"></path></g><g transform="translate(124.56990051269531 43.72804260253906) rotate(0 -1.2875038274928556 36.338188208537176)"><path d="M-12.3 44.79 C-10.43 53.07, -8.09 61.88, -3.33 72.86 M-12.36 45.45 C-9.21 55.46, -4.13 66.82, -2 74.02" stroke="#1e1e1e" stroke-width="1" fill="none"></path></g><g transform="translate(124.56990051269531 43.72804260253906) rotate(0 -1.2875038274928556 36.338188208537176)"><path d="M8.22 44.86 C4.68 53.08, 1.6 61.88, -3.33 72.86 M8.16 45.51 C3.68 55.35, 1.14 66.68, -2 74.02" stroke="#1e1e1e" stroke-width="1" fill="none"></path></g></g><mask></mask><g stroke-linecap="round"><g transform="translate(199.77748107910156 89.64894104003906) rotate(0 -36.13175601052586 13.515218872525722)"><path d="M0.57 -0.58 C-4.08 -0.14, -16.11 -1.56, -28.27 2.92 C-40.43 7.41, -64.96 22.52, -72.38 26.31 M-0.59 1.73 C-4.84 2.3, -13.98 -0.17, -26.02 4.14 C-38.06 8.46, -65.09 23.89, -72.83 27.61" stroke="#1e1e1e" stroke-width="1" fill="none"></path></g><g transform="translate(199.77748107910156 89.64894104003906) rotate(0 -36.13175601052586 13.515218872525722)"><path d="M-56.62 7.3 C-61.25 14.94, -64.93 19.31, -73.93 29.14 M-55.23 8.69 C-59.97 12.73, -62.48 16.34, -71.88 28.07" stroke="#1e1e1e" stroke-width="1" fill="none"></path></g><g transform="translate(199.77748107910156 89.64894104003906) rotate(0 -36.13175601052586 13.515218872525722)"><path d="M-48.53 22.75 C-55.38 26.26, -61.23 26.47, -73.93 29.14 M-47.13 24.14 C-53.63 25.04, -57.8 25.48, -71.88 28.07" stroke="#1e1e1e" stroke-width="1" fill="none"></path></g></g><mask></mask><g stroke-linecap="round"><g transform="translate(121.87757873535156 246.89065551757812) rotate(0 0.6520464001362996 39.517763008922344)"><path d="M0.92 -0.89 C1.27 12.29, 1.16 66.44, 1.37 79.93 M-0.06 1.25 C0.16 14, -0.09 65.24, 0.19 78.03" stroke="#1e1e1e" stroke-width="1" fill="none"></path></g></g><mask></mask><g stroke-linecap="round" transform="translate(663.8595581054688 111.47544860839844) rotate(0 62.397125244140625 75.32492065429688)"><path d="M31.2 0 M31.2 0 C44.49 0.47, 60.36 -0.39, 93.6 0 M31.2 0 C45.33 0.33, 59.76 1.37, 93.6 0 M93.6 0 C112.42 -0.67, 124.57 12.03, 124.79 31.2 M93.6 0 C114.11 0.75, 123.05 9.11, 124.79 31.2 M124.79 31.2 C123.82 51.22, 125.58 71.22, 124.79 119.45 M124.79 31.2 C124.68 65.57, 123.3 98.11, 124.79 119.45 M124.79 119.45 C123.73 138.97, 113.18 150.53, 93.6 150.65 M124.79 119.45 C123.02 139.21, 116.67 148.49, 93.6 150.65 M93.6 150.65 C78.09 148.37, 65.46 148.26, 31.2 150.65 M93.6 150.65 C74.06 151.22, 55.07 150.99, 31.2 150.65 M31.2 150.65 C11.05 150.81, -1.5 141.26, 0 119.45 M31.2 150.65 C8.2 152.78, 0.11 140.93, 0 119.45 M0 119.45 C2.05 102.1, 1.74 82.95, 0 31.2 M0 119.45 C0.38 85.41, 1.3 53.69, 0 31.2 M0 31.2 C-1.73 8.47, 10.02 -1.85, 31.2 0 M0 31.2 C1.54 8.51, 12.57 1.92, 31.2 0" stroke="#1e1e1e" stroke-width="1" fill="none"></path></g><g transform="translate(669.7967300415039 149.3003692626953) rotate(0 56.45995330810547 37.5)"><text x="56.45995330810547" y="0" font-family="Virgil, Segoe UI Emoji" font-size="20px" fill="#1e1e1e" text-anchor="middle" style="white-space: pre;" direction="ltr" dominant-baseline="text-before-edge">Field </text><text x="56.45995330810547" y="25" font-family="Virgil, Segoe UI Emoji" font-size="20px" fill="#1e1e1e" text-anchor="middle" style="white-space: pre;" direction="ltr" dominant-baseline="text-before-edge">Translation</text><text x="56.45995330810547" y="50" font-family="Virgil, Segoe UI Emoji" font-size="20px" fill="#1e1e1e" text-anchor="middle" style="white-space: pre;" direction="ltr" dominant-baseline="text-before-edge">Unit (FTU)</text></g><g stroke-linecap="round" transform="translate(815.7109985351562 119.06871032714844) rotate(0 44.903076171875 22.924667358398438)"><path d="M11.46 0 M11.46 0 C38.9 1.22, 64.64 -0.34, 78.34 0 M11.46 0 C30.94 -0.9, 51.82 0.22, 78.34 0 M78.34 0 C85.19 0.31, 89.8 3.22, 89.81 11.46 M78.34 0 C85.49 -0.98, 91.75 6.01, 89.81 11.46 M89.81 11.46 C90.52 16.46, 88.17 23.58, 89.81 34.39 M89.81 11.46 C89.64 15.96, 88.88 23.04, 89.81 34.39 M89.81 34.39 C89.98 42.92, 85.54 45.87, 78.34 45.85 M89.81 34.39 C89.02 40.1, 83.83 45.21, 78.34 45.85 M78.34 45.85 C63.35 46.43, 48.96 43.81, 11.46 45.85 M78.34 45.85 C61.89 45.29, 43.2 47.06, 11.46 45.85 M11.46 45.85 C4.61 46.05, 1.85 43.92, 0 34.39 M11.46 45.85 C5.38 46.86, 2.04 41.11, 0 34.39 M0 34.39 C-1.78 29.29, 1.86 19.19, 0 11.46 M0 34.39 C0.39 28.49, -0.5 22.37, 0 11.46 M0 11.46 C1.37 5.01, 4.36 1.34, 11.46 0 M0 11.46 C-1.96 4.84, 5.88 1.56, 11.46 0" stroke="#1e1e1e" stroke-width="1" fill="none"></path></g><g transform="translate(840.5840835571289 129.49337768554688) rotate(0 20.029991149902344 12.5)"><text x="20.029991149902344" y="0" font-family="Virgil, Segoe UI Emoji" font-size="20px" fill="#1e1e1e" text-anchor="middle" style="white-space: pre;" direction="ltr" dominant-baseline="text-before-edge">IRD</text></g><g stroke-linecap="round"><g transform="translate(816.633544921875 141.13124084472656) rotate(0 -14.578721585464564 0.7384304896351779)"><path d="M0.79 0.63 C-4.18 0.57, -24.03 0.48, -29.34 0.55 M-0.25 -0.08 C-5.37 -0.11, -25.21 1.19, -29.95 1.56" stroke="#1e1e1e" stroke-width="1" fill="none"></path></g><g transform="translate(816.633544921875 141.13124084472656) rotate(0 -14.578721585464564 0.7384304896351779)"><path d="M-15.44 -3.74 C-22.14 -3.68, -26.22 -1.37, -31.16 0.83 M-15.87 -4.64 C-18.92 -2.89, -22.07 -1.64, -30.6 2.17" stroke="#1e1e1e" stroke-width="1" fill="none"></path></g><g transform="translate(816.633544921875 141.13124084472656) rotate(0 -14.578721585464564 0.7384304896351779)"><path d="M-14.74 6.5 C-21.75 3.06, -26.07 1.86, -31.16 0.83 M-15.17 5.6 C-18.36 5.26, -21.66 4.42, -30.6 2.17" stroke="#1e1e1e" stroke-width="1" fill="none"></path></g></g><mask></mask><g stroke-linecap="round" transform="translate(818.63525390625 183.27438354492188) rotate(0 44.903076171875 22.924667358398438)"><path d="M11.46 0 M11.46 0 C27.12 1.92, 44.42 0.42, 78.34 0 M11.46 0 C37.68 0, 62.3 -0.57, 78.34 0 M78.34 0 C84.87 -1.7, 90.62 3.95, 89.81 11.46 M78.34 0 C84.78 -1.19, 87.96 3.87, 89.81 11.46 M89.81 11.46 C89.35 17.47, 87.91 24.92, 89.81 34.39 M89.81 11.46 C90.28 16.36, 89.61 21.64, 89.81 34.39 M89.81 34.39 C91.64 41.93, 87.92 47.55, 78.34 45.85 M89.81 34.39 C90.4 41.56, 86.33 48.11, 78.34 45.85 M78.34 45.85 C59.67 45.62, 40.08 45.44, 11.46 45.85 M78.34 45.85 C59.61 45.85, 40.82 46.8, 11.46 45.85 M11.46 45.85 C2.36 45.46, 1.09 40.66, 0 34.39 M11.46 45.85 C3.94 45.9, 1.24 42.37, 0 34.39 M0 34.39 C-0.71 25.84, -1.42 17.4, 0 11.46 M0 34.39 C-0.06 25.65, -0.33 17.86, 0 11.46 M0 11.46 C-1.96 4.61, 1.88 1.86, 11.46 0 M0 11.46 C0.71 4.36, 2.8 2.29, 11.46 0" stroke="#1e1e1e" stroke-width="1" fill="none"></path></g><g transform="translate(851.3083343505859 193.6990509033203) rotate(0 12.229995727539062 12.5)"><text x="12.229995727539062" y="0" font-family="Virgil, Segoe UI Emoji" font-size="20px" fill="#1e1e1e" text-anchor="middle" style="white-space: pre;" direction="ltr" dominant-baseline="text-before-edge">IR</text></g><g stroke-linecap="round" transform="translate(816.8441772460938 246.62100219726562) rotate(0 44.903076171875 22.924667358398438)"><path d="M11.46 0 M11.46 0 C27.21 0.04, 44.99 1.4, 78.34 0 M11.46 0 C34.54 -1.13, 56.72 0.47, 78.34 0 M78.34 0 C84.6 -1.08, 91.19 2.93, 89.81 11.46 M78.34 0 C85.53 -0.94, 88.32 3.72, 89.81 11.46 M89.81 11.46 C90.2 17.47, 87.85 22.68, 89.81 34.39 M89.81 11.46 C89.78 18, 90.96 26.37, 89.81 34.39 M89.81 34.39 C88.25 42.2, 86.94 46.56, 78.34 45.85 M89.81 34.39 C89.12 39.87, 87.58 44.97, 78.34 45.85 M78.34 45.85 C56.29 45.75, 36.67 44.74, 11.46 45.85 M78.34 45.85 C51.38 46.37, 25.18 46.21, 11.46 45.85 M11.46 45.85 C1.98 45.4, -1.86 41.48, 0 34.39 M11.46 45.85 C2.39 47.1, -1.54 40.19, 0 34.39 M0 34.39 C-0.64 26.4, 1.14 17.48, 0 11.46 M0 34.39 C0.22 28.49, -0.32 22.54, 0 11.46 M0 11.46 C1.32 3, 2.87 1.59, 11.46 0 M0 11.46 C-0.03 2.44, 2.29 1.18, 11.46 0" stroke="#1e1e1e" stroke-width="1" fill="none"></path></g><g transform="translate(843.077262878418 257.04566955566406) rotate(0 18.66999053955078 12.5)"><text x="18.66999053955078" y="0" font-family="Virgil, Segoe UI Emoji" font-size="20px" fill="#1e1e1e" text-anchor="middle" style="white-space: pre;" direction="ltr" dominant-baseline="text-before-edge">IRC</text></g><g stroke-linecap="round"><g transform="translate(857.518798828125 184.1163787841797) rotate(0 -0.22979358096142732 -10.232632782310247)"><path d="M0.14 -0.06 C-0.27 -3.62, -1.23 -17.21, -1.3 -20.4 M-1.24 -1.14 C-1.39 -4.68, 0.82 -16.65, 0.84 -19.44" stroke="#1e1e1e" stroke-width="1" fill="none"></path></g><g transform="translate(857.518798828125 184.1163787841797) rotate(0 -0.22979358096142732 -10.232632782310247)"><path d="M3.1 -10.92 C1.28 -13.83, 1.31 -16.85, -0.12 -20.18 M2.68 -10.39 C2.33 -12.24, 1.84 -14.08, 0.9 -19.56" stroke="#1e1e1e" stroke-width="1" fill="none"></path></g><g transform="translate(857.518798828125 184.1163787841797) rotate(0 -0.22979358096142732 -10.232632782310247)"><path d="M-3.47 -11.64 C-2.67 -14.27, -0.04 -17.01, -0.12 -20.18 M-3.89 -11.1 C-2.69 -12.72, -1.62 -14.39, 0.9 -19.56" stroke="#1e1e1e" stroke-width="1" fill="none"></path></g></g><mask></mask><g stroke-linecap="round"><g transform="translate(862.4943237304688 246.2665557861328) rotate(0 0.5719387124245259 -7.622009359202366)"><path d="M-0.42 -1 C-0.39 -3.89, 0.01 -13.93, 0.08 -16.33 M1.56 1.09 C1.53 -1.72, -0.06 -11.95, -0.37 -15.05" stroke="#1e1e1e" stroke-width="1" fill="none"></path></g><g transform="translate(862.4943237304688 246.2665557861328) rotate(0 0.5719387124245259 -7.622009359202366)"><path d="M2.6 -7.37 C1.83 -9.48, 1.39 -11.66, -0.13 -14.98 M3.01 -7.84 C1.8 -10.55, 0.38 -13.43, -0.3 -15.3" stroke="#1e1e1e" stroke-width="1" fill="none"></path></g><g transform="translate(862.4943237304688 246.2665557861328) rotate(0 0.5719387124245259 -7.622009359202366)"><path d="M-2.79 -6.69 C-2 -8.97, -0.87 -11.35, -0.13 -14.98 M-2.37 -7.15 C-1.58 -10.09, -1 -13.22, -0.3 -15.3" stroke="#1e1e1e" stroke-width="1" fill="none"></path></g></g><mask></mask><g stroke-linecap="round"><g transform="translate(997.876708984375 269.36964416503906) rotate(0 -44.41388545607208 0.06110527623178541)"><path d="M-0.9 -0.93 C-15.76 -1.21, -74.26 -1.03, -88.88 -0.97 M0.82 1.2 C-14.18 0.98, -74.66 0.18, -89.65 0.06" stroke="#1e1e1e" stroke-width="1" fill="none"></path></g><g transform="translate(997.876708984375 269.36964416503906) rotate(0 -44.41388545607208 0.06110527623178541)"><path d="M-62.89 -9.33 C-71.96 -5.94, -80.3 -2.56, -89.51 -0.2 M-60.79 -10.86 C-68.29 -8.66, -74.16 -5.29, -90.58 -0.53" stroke="#1e1e1e" stroke-width="1" fill="none"></path></g><g transform="translate(997.876708984375 269.36964416503906) rotate(0 -44.41388545607208 0.06110527623178541)"><path d="M-63.11 11.19 C-72.24 8.02, -80.5 4.82, -89.51 -0.2 M-61.02 9.66 C-68.33 7.54, -74.14 6.58, -90.58 -0.53" stroke="#1e1e1e" stroke-width="1" fill="none"></path></g></g><mask></mask></svg>