<svg version="1.1" xmlns="http://www.w3.org/2000/svg" viewBox="0 0 2150.0000000000036 2534.92209982872" width="4300.000000000007" height="5069.84419965744">
  <!-- svg-source:excalidraw -->
  
  <defs>
    <style class="style-fonts">
      @font-face {
        font-family: "Virgil";
        src: url("https://excalidraw.com/Virgil.woff2");
      }
      @font-face {
        font-family: "Cascadia";
        src: url("https://excalidraw.com/Cascadia.woff2");
      }
    </style>
    
  </defs>
  <g stroke-linecap="round" transform="translate(15.999999999999773 10) rotate(0 171 92.5)"><path d="M32 0 M32 0 C135.48 2.73, 241.99 3.56, 310 0 M32 0 C137.81 0.97, 243.65 0.19, 310 0 M310 0 C330.77 1.68, 342.91 12.42, 342 32 M310 0 C330.46 0.19, 341.85 10.97, 342 32 M342 32 C342.05 73.21, 341.59 115.6, 342 153 M342 32 C341.75 61.42, 340.33 88.88, 342 153 M342 153 C343.14 175.06, 332.18 184.4, 310 185 M342 153 C340.3 174.97, 331.87 187.25, 310 185 M310 185 C240.63 185.31, 172.06 186.08, 32 185 M310 185 C236.49 183.8, 164.11 183.27, 32 185 M32 185 C11.77 185.83, 0.5 175.71, 0 153 M32 185 C9.09 185.79, -1.06 172.56, 0 153 M0 153 C-1.34 112.7, -1.76 69.68, 0 32 M0 153 C0.34 109.01, 1.1 66.59, 0 32 M0 32 C0.61 9.93, 11.07 -0.98, 32 0 M0 32 C0.87 11.18, 9.66 0.79, 32 0" stroke="#1e1e1e" stroke-width="1" fill="none"></path></g><g transform="translate(56.47999572753886 15) rotate(0 130.52000427246094 87.5)"><text x="130.52000427246094" y="0" font-family="Virgil, Segoe UI Emoji" font-size="20px" fill="#1e1e1e" text-anchor="middle" style="white-space: pre;" direction="ltr" dominant-baseline="text-before-edge">DVUR1</text><text x="130.52000427246094" y="25" font-family="Virgil, Segoe UI Emoji" font-size="20px" fill="#1e1e1e" text-anchor="middle" style="white-space: pre;" direction="ltr" dominant-baseline="text-before-edge"></text><text x="130.52000427246094" y="50" font-family="Virgil, Segoe UI Emoji" font-size="20px" fill="#1e1e1e" text-anchor="middle" style="white-space: pre;" direction="ltr" dominant-baseline="text-before-edge">alu = divisor &amp; 0xFFFF</text><text x="130.52000427246094" y="75" font-family="Virgil, Segoe UI Emoji" font-size="20px" fill="#1e1e1e" text-anchor="middle" style="white-space: pre;" direction="ltr" dominant-baseline="text-before-edge">alub = divisor</text><text x="130.52000427246094" y="100" font-family="Virgil, Segoe UI Emoji" font-size="20px" fill="#1e1e1e" text-anchor="middle" style="white-space: pre;" direction="ltr" dominant-baseline="text-before-edge">alue = dividend bits 15...0</text><text x="130.52000427246094" y="125" font-family="Virgil, Segoe UI Emoji" font-size="20px" fill="#1e1e1e" text-anchor="middle" style="white-space: pre;" direction="ltr" dominant-baseline="text-before-edge"></text><text x="130.52000427246094" y="150" font-family="Virgil, Segoe UI Emoji" font-size="20px" fill="#1e1e1e" text-anchor="middle" style="white-space: pre;" direction="ltr" dominant-baseline="text-before-edge">Test divisor zero and sign</text></g><g stroke-linecap="round" transform="translate(20.999999999999773 260.5) rotate(0 171 92.5)"><path d="M32 0 M32 0 C121.25 2.57, 214.02 0.24, 310 0 M32 0 C106.46 0.94, 181.16 0.39, 310 0 M310 0 C329.56 -1.13, 340.05 9.41, 342 32 M310 0 C329.27 0.4, 341.96 8.6, 342 32 M342 32 C341.74 74.16, 341.89 114.46, 342 153 M342 32 C342.96 61.58, 342.93 90.52, 342 153 M342 153 C343.19 174.21, 332.82 183.37, 310 185 M342 153 C342.27 172.12, 329.17 183.69, 310 185 M310 185 C246.92 184.36, 183.46 185.28, 32 185 M310 185 C249.3 187.08, 188.97 187.1, 32 185 M32 185 C9.8 184.74, -0.16 174.12, 0 153 M32 185 C10.94 186.89, -0.05 173.19, 0 153 M0 153 C1.28 116.64, -0.39 80.1, 0 32 M0 153 C-0.23 127.03, -0.49 103.37, 0 32 M0 32 C1.54 8.92, 12.3 -1.51, 32 0 M0 32 C0.37 10.37, 10.24 -2.26, 32 0" stroke="#1e1e1e" stroke-width="1" fill="none"></path></g><g transform="translate(34.660003662109176 290.5) rotate(0 157.33999633789062 62.5)"><text x="157.33999633789062" y="0" font-family="Virgil, Segoe UI Emoji" font-size="20px" fill="#1e1e1e" text-anchor="middle" style="white-space: pre;" direction="ltr" dominant-baseline="text-before-edge">DVUM2</text><text x="157.33999633789062" y="25" font-family="Virgil, Segoe UI Emoji" font-size="20px" fill="#1e1e1e" text-anchor="middle" style="white-space: pre;" direction="ltr" dominant-baseline="text-before-edge"></text><text x="157.33999633789062" y="50" font-family="Virgil, Segoe UI Emoji" font-size="20px" fill="#1e1e1e" text-anchor="middle" style="white-space: pre;" direction="ltr" dominant-baseline="text-before-edge">alu = dividend bits 31...16 - alub</text><text x="157.33999633789062" y="75" font-family="Virgil, Segoe UI Emoji" font-size="20px" fill="#1e1e1e" text-anchor="middle" style="white-space: pre;" direction="ltr" dominant-baseline="text-before-edge"></text><text x="157.33999633789062" y="100" font-family="Virgil, Segoe UI Emoji" font-size="20px" fill="#1e1e1e" text-anchor="middle" style="white-space: pre;" direction="ltr" dominant-baseline="text-before-edge">Test for overflow</text></g><g stroke-linecap="round"><g transform="translate(180.36413295443788 197) rotate(0 1.5180132280074474 31.404681953783154)"><path d="M0.89 0.86 C1.55 11.3, 2.68 52.47, 3.13 62.54 M-0.1 0.27 C0.53 10.36, 1.93 50.38, 2.52 60.71" stroke="#1e1e1e" stroke-width="1" fill="none"></path></g><g transform="translate(180.36413295443788 197) rotate(0 1.5180132280074474 31.404681953783154)"><path d="M-7.56 34.09 C-5.43 41.28, -4.82 44.05, 2.81 62.22 M-9.79 32.07 C-5.5 40.11, -3.39 46.92, 2.09 61.42" stroke="#1e1e1e" stroke-width="1" fill="none"></path></g><g transform="translate(180.36413295443788 197) rotate(0 1.5180132280074474 31.404681953783154)"><path d="M12.94 33.16 C10.29 40.73, 6.13 43.71, 2.81 62.22 M10.71 31.15 C9.57 39.37, 6.25 46.42, 2.09 61.42" stroke="#1e1e1e" stroke-width="1" fill="none"></path></g></g><mask></mask><g mask="url(#mask-f41wOB4qvYNnJCyQMxu7g)" stroke-linecap="round"><g transform="translate(365.9999999999999 359.26934272596907) rotate(0 178.09392100170714 1.1610047673281656)"><path d="M0.77 0.47 C60.1 0.73, 297.14 2.54, 356.47 2.65 M-0.28 -0.33 C58.88 0.07, 296.32 0.37, 355.76 0.74" stroke="#1e1e1e" stroke-width="1" fill="none"></path></g><g transform="translate(365.9999999999999 359.26934272596907) rotate(0 178.09392100170714 1.1610047673281656)"><path d="M328.32 11.68 C337.78 8.48, 344.91 5.39, 354.29 -0.91 M327.93 11.21 C334.96 8.6, 343.48 5.79, 355.69 0.89" stroke="#1e1e1e" stroke-width="1" fill="none"></path></g><g transform="translate(365.9999999999999 359.26934272596907) rotate(0 178.09392100170714 1.1610047673281656)"><path d="M328.39 -8.84 C338.02 -5, 345.13 -1.05, 354.29 -0.91 M328 -9.31 C335.19 -6.18, 343.7 -3.25, 355.69 0.89" stroke="#1e1e1e" stroke-width="1" fill="none"></path></g></g><mask id="mask-f41wOB4qvYNnJCyQMxu7g"><rect x="0" y="0" fill="#fff" width="821.9999999999998" height="461.5300054437671"></rect><rect x="434.86000061035134" y="347.899674084868" fill="#000" width="218.27999877929688" height="25" opacity="1"></rect></mask><g transform="translate(434.86000061035134 347.89967408486814) rotate(0 109.2339203913557 12.530673408429095)"><text x="109.13999938964844" y="0" font-family="Virgil, Segoe UI Emoji" font-size="20px" fill="#1e1e1e" text-anchor="middle" style="white-space: pre;" direction="ltr" dominant-baseline="text-before-edge">divisor = 0 (z = true)</text></g><g stroke-linecap="round" transform="translate(728.9999999999998 327) rotate(0 126.5 38)"><path d="M19 0 M19 0 C89.72 -0.44, 157.45 1.46, 234 0 M19 0 C79.19 0.11, 141.4 0.59, 234 0 M234 0 C246.75 -1.74, 253.49 7.08, 253 19 M234 0 C247.81 1.34, 251.19 5.73, 253 19 M253 19 C251.02 29.83, 253.18 40.34, 253 57 M253 19 C252.78 32.6, 252.1 46.16, 253 57 M253 57 C253.26 70.08, 247.15 76.83, 234 76 M253 57 C253.11 70.22, 248.23 74.46, 234 76 M234 76 C176.79 75.48, 118.86 77.45, 19 76 M234 76 C157.95 74.63, 82.71 74.58, 19 76 M19 76 C5.77 75.61, -1.53 68.5, 0 57 M19 76 C7.86 77.96, -0.91 68.91, 0 57 M0 57 C-1.51 49.06, -0.48 39.97, 0 19 M0 57 C-0.2 48.12, -0.55 37.68, 0 19 M0 19 C-1.19 5.29, 7.02 -0.43, 19 0 M0 19 C-1.75 7.3, 6.09 -2.04, 19 0" stroke="#1e1e1e" stroke-width="1" fill="none"></path></g><g transform="translate(759.5799942016599 352.5) rotate(0 95.92000579833984 12.5)"><text x="95.92000579833984" y="0" font-family="Virgil, Segoe UI Emoji" font-size="20px" fill="#1e1e1e" text-anchor="middle" style="white-space: pre;" direction="ltr" dominant-baseline="text-before-edge">Divide by zero trap</text></g><g stroke-linecap="round" transform="translate(12.200009663899664 572.9999955495202) rotate(0 171 92.5)"><path d="M32 0 M32 0 C125.76 -1.84, 221.52 -1.41, 310 0 M32 0 C105.56 -1.04, 179.83 -1.3, 310 0 M310 0 C329.66 -0.46, 343.64 9.96, 342 32 M310 0 C332.17 -0.22, 341.81 9.11, 342 32 M342 32 C343.65 79.03, 340.91 124.87, 342 153 M342 32 C340.44 68.01, 341.66 105.09, 342 153 M342 153 C342.53 176.05, 330.13 186.14, 310 185 M342 153 C340.72 173.78, 331.22 183.66, 310 185 M310 185 C214.16 185.24, 118.8 187.43, 32 185 M310 185 C221.63 183.45, 133.29 182.89, 32 185 M32 185 C9.14 185.06, 1.47 173.43, 0 153 M32 185 C12.94 186.67, -1.82 175.49, 0 153 M0 153 C0.21 125.43, -1.06 94.63, 0 32 M0 153 C0.48 116.42, 0.21 79.82, 0 32 M0 32 C-1.1 12.07, 12.3 0.08, 32 0 M0 32 C0.75 9.57, 8.63 -0.42, 32 0" stroke="#1e1e1e" stroke-width="1" fill="none"></path></g><g transform="translate(48.27001698811844 590.4999955495202) rotate(0 134.92999267578125 75)"><text x="134.92999267578125" y="0" font-family="Virgil, Segoe UI Emoji" font-size="20px" fill="#1e1e1e" text-anchor="middle" style="white-space: pre;" direction="ltr" dominant-baseline="text-before-edge">DVUM3</text><text x="134.92999267578125" y="25" font-family="Virgil, Segoe UI Emoji" font-size="20px" fill="#1e1e1e" text-anchor="middle" style="white-space: pre;" direction="ltr" dominant-baseline="text-before-edge"></text><text x="134.92999267578125" y="50" font-family="Virgil, Segoe UI Emoji" font-size="20px" fill="#1e1e1e" text-anchor="middle" style="white-space: pre;" direction="ltr" dominant-baseline="text-before-edge">alu = dividend bit 31...16 &amp; </text><text x="134.92999267578125" y="75" font-family="Virgil, Segoe UI Emoji" font-size="20px" fill="#1e1e1e" text-anchor="middle" style="white-space: pre;" direction="ltr" dominant-baseline="text-before-edge">0xFFFF</text><text x="134.92999267578125" y="100" font-family="Virgil, Segoe UI Emoji" font-size="20px" fill="#1e1e1e" text-anchor="middle" style="white-space: pre;" direction="ltr" dominant-baseline="text-before-edge"></text><text x="134.92999267578125" y="125" font-family="Virgil, Segoe UI Emoji" font-size="20px" fill="#1e1e1e" text-anchor="middle" style="white-space: pre;" direction="ltr" dominant-baseline="text-before-edge">Test sign of dividend</text></g><g stroke-linecap="round"><g transform="translate(172.47856041587232 450.5000000000007) rotate(0 3.3918462154461793 61.06961177380896)"><path d="M0.02 0.59 C1.15 20.9, 4.71 102.32, 5.91 122.29 M-1.42 -0.15 C0.16 19.79, 6.85 100.36, 8.21 120.58" stroke="#1e1e1e" stroke-width="1" fill="none"></path></g><g transform="translate(172.47856041587232 450.5000000000007) rotate(0 3.3918462154461793 61.06961177380896)"><path d="M-3.19 91.94 C0.09 100.38, -0.19 107.17, 9.57 120.59 M-4.76 92.59 C0.11 103.42, 3.83 112.6, 7.25 120.76" stroke="#1e1e1e" stroke-width="1" fill="none"></path></g><g transform="translate(172.47856041587232 450.5000000000007) rotate(0 3.3918462154461793 61.06961177380896)"><path d="M17.27 90.38 C15.85 99.18, 10.87 106.33, 9.57 120.59 M15.7 91.03 C13.04 102.53, 9.25 112.28, 7.25 120.76" stroke="#1e1e1e" stroke-width="1" fill="none"></path></g></g><mask></mask><g stroke-linecap="round" transform="translate(743.2000074386599 628.5833333333337) rotate(0 126.5 38)"><path d="M19 0 M19 0 C93.2 -0.35, 166.19 -1.13, 234 0 M19 0 C66.95 -0.19, 113.78 -0.45, 234 0 M234 0 C244.68 -1.26, 253.4 7.9, 253 19 M234 0 C245.56 0.95, 254.72 8.09, 253 19 M253 19 C251.88 32.13, 252.1 44.65, 253 57 M253 19 C252.57 29.76, 253.88 37.74, 253 57 M253 57 C254.9 71.17, 245.12 77.82, 234 76 M253 57 C251.95 71.12, 248.63 78.01, 234 76 M234 76 C184.97 77.81, 132.38 76.6, 19 76 M234 76 C163.33 75.77, 92.76 76.29, 19 76 M19 76 C5.95 77.69, 0.05 69.95, 0 57 M19 76 C6.93 76.39, 1.99 69.88, 0 57 M0 57 C1.05 44.67, 1.57 31.1, 0 19 M0 57 C-0.81 44.84, -0.67 34.32, 0 19 M0 19 C-1.45 8.08, 7.62 -0.04, 19 0 M0 19 C1.85 6.45, 5.82 0.5, 19 0" stroke="#1e1e1e" stroke-width="1" fill="none"></path></g><g transform="translate(828.3200063705447 654.0833333333337) rotate(0 41.380001068115234 12.5)"><text x="41.380001068115234" y="0" font-family="Virgil, Segoe UI Emoji" font-size="20px" fill="#1e1e1e" text-anchor="middle" style="white-space: pre;" direction="ltr" dominant-baseline="text-before-edge">Overflow</text></g><g mask="url(#mask-KG7Ph-N-s3_ZrDkfeC-Ux)" stroke-linecap="round"><g transform="translate(357.5333407719929 666.5420390579939) rotate(0 191.3659910968491 -1.7095763723638129)"><path d="M0.36 -0.47 C64.12 -1.12, 319.82 -2.46, 383.64 -2.95 M-0.9 -1.76 C62.69 -2.31, 319.24 -1.43, 383.2 -1.55" stroke="#1e1e1e" stroke-width="1" fill="none"></path></g><g transform="translate(357.5333407719929 666.5420390579939) rotate(0 191.3659910968491 -1.7095763723638129)"><path d="M354.22 10.3 C365.48 5.6, 375.72 1.03, 384.53 -2.05 M355.09 7.87 C362.26 4.93, 369.5 3.97, 382.88 -1.29" stroke="#1e1e1e" stroke-width="1" fill="none"></path></g><g transform="translate(357.5333407719929 666.5420390579939) rotate(0 191.3659910968491 -1.7095763723638129)"><path d="M354.24 -10.23 C365.66 -6.91, 375.89 -3.49, 384.53 -2.05 M355.11 -12.65 C362.32 -10.1, 369.55 -5.57, 382.88 -1.29" stroke="#1e1e1e" stroke-width="1" fill="none"></path></g></g><mask id="mask-KG7Ph-N-s3_ZrDkfeC-Ux"><rect x="0" y="0" fill="#fff" width="840.2000074386599" height="769.2369633431249"></rect><rect x="450.42667166392016" y="652.6945769154283" fill="#000" width="196.8800048828125" height="25" opacity="1"></rect></mask><g transform="translate(450.42667166392016 652.6945769154283) rotate(0 98.47266020492185 12.137885770201706)"><text x="98.44000244140625" y="0" font-family="Virgil, Segoe UI Emoji" font-size="20px" fill="#1e1e1e" text-anchor="middle" style="white-space: pre;" direction="ltr" dominant-baseline="text-before-edge">overflow (c = false)</text></g><g stroke-linecap="round" transform="translate(10 888.8333333333337) rotate(0 171 130)"><path d="M32 0 M32 0 C101.76 1.19, 175.37 -0.8, 310 0 M32 0 C125.6 1.14, 219.89 0.2, 310 0 M310 0 C329.99 0.53, 341.07 8.78, 342 32 M310 0 C329.31 0.77, 341.22 10.19, 342 32 M342 32 C343.62 100.56, 345.56 167.01, 342 228 M342 32 C341.46 102.85, 341.05 173.88, 342 228 M342 228 C342.15 247.35, 330.33 260.44, 310 260 M342 228 C339.99 248.24, 332.31 258.18, 310 260 M310 260 C237.38 261.1, 164.13 261.34, 32 260 M310 260 C231.63 260.05, 151.77 260.07, 32 260 M32 260 C9.96 261.4, -1.78 248.66, 0 228 M32 260 C9.64 259.66, -1.46 247.38, 0 228 M0 228 C2.55 157.75, 0.02 83.25, 0 32 M0 228 C-0.32 160.71, -1.82 92.72, 0 32 M0 32 C0.55 8.98, 9.16 -1.92, 32 0 M0 32 C2.19 10.24, 9.93 -0.08, 32 0" stroke="#1e1e1e" stroke-width="1" fill="none"></path></g><g transform="translate(31.88000488281253 893.8333333333337) rotate(0 149.1199951171875 125)"><text x="149.1199951171875" y="0" font-family="Virgil, Segoe UI Emoji" font-size="20px" fill="#1e1e1e" text-anchor="middle" style="white-space: pre;" direction="ltr" dominant-baseline="text-before-edge">DVUM5</text><text x="149.1199951171875" y="25" font-family="Virgil, Segoe UI Emoji" font-size="20px" fill="#1e1e1e" text-anchor="middle" style="white-space: pre;" direction="ltr" dominant-baseline="text-before-edge"></text><text x="149.1199951171875" y="50" font-family="Virgil, Segoe UI Emoji" font-size="20px" fill="#1e1e1e" text-anchor="middle" style="white-space: pre;" direction="ltr" dominant-baseline="text-before-edge">counter = counter - 1</text><text x="149.1199951171875" y="75" font-family="Virgil, Segoe UI Emoji" font-size="20px" fill="#1e1e1e" text-anchor="middle" style="white-space: pre;" direction="ltr" dominant-baseline="text-before-edge">alu = alu LSL 1</text><text x="149.1199951171875" y="100" font-family="Virgil, Segoe UI Emoji" font-size="20px" fill="#1e1e1e" text-anchor="middle" style="white-space: pre;" direction="ltr" dominant-baseline="text-before-edge">alu bit 0 = alue bit 15 </text><text x="149.1199951171875" y="125" font-family="Virgil, Segoe UI Emoji" font-size="20px" fill="#1e1e1e" text-anchor="middle" style="white-space: pre;" direction="ltr" dominant-baseline="text-before-edge">alue = alue LSL 1</text><text x="149.1199951171875" y="150" font-family="Virgil, Segoe UI Emoji" font-size="20px" fill="#1e1e1e" text-anchor="middle" style="white-space: pre;" direction="ltr" dominant-baseline="text-before-edge">alue bit 0 = 0</text><text x="149.1199951171875" y="175" font-family="Virgil, Segoe UI Emoji" font-size="20px" fill="#1e1e1e" text-anchor="middle" style="white-space: pre;" direction="ltr" dominant-baseline="text-before-edge"></text><text x="149.1199951171875" y="200" font-family="Virgil, Segoe UI Emoji" font-size="20px" fill="#1e1e1e" text-anchor="middle" style="white-space: pre;" direction="ltr" dominant-baseline="text-before-edge">Shift dividend left, set least </text><text x="149.1199951171875" y="225" font-family="Virgil, Segoe UI Emoji" font-size="20px" fill="#1e1e1e" text-anchor="middle" style="white-space: pre;" direction="ltr" dominant-baseline="text-before-edge">significant bit to zero</text></g><g stroke-linecap="round"><g transform="translate(189.3492225462843 759.3809523809534) rotate(0 -0.08017495363651506 63.15962256987882)"><path d="M-0.93 -0.77 C-0.98 20.41, 0.22 105.69, 0.49 127.09 M0.78 1.44 C0.53 22.26, -0.19 104.47, -0.29 125.19" stroke="#1e1e1e" stroke-width="1" fill="none"></path></g><g transform="translate(189.3492225462843 759.3809523809534) rotate(0 -0.08017495363651506 63.15962256987882)"><path d="M-11.63 97.45 C-5.99 108.11, -1.46 115.82, 0.14 124.47 M-10.53 97.52 C-6.6 108.58, -2.16 119.19, 0.26 125.48" stroke="#1e1e1e" stroke-width="1" fill="none"></path></g><g transform="translate(189.3492225462843 759.3809523809534) rotate(0 -0.08017495363651506 63.15962256987882)"><path d="M8.89 97.59 C7.07 108.05, 4.14 115.7, 0.14 124.47 M9.99 97.67 C5.94 108.83, 2.4 119.38, 0.26 125.48" stroke="#1e1e1e" stroke-width="1" fill="none"></path></g></g><mask></mask><g stroke-linecap="round" transform="translate(672.0067163649057 1276.515181405204) rotate(0 171 130)"><path d="M32 0 M32 0 C116.19 -1.87, 200.93 -1.82, 310 0 M32 0 C125.55 -0.79, 220.49 0.46, 310 0 M310 0 C333.08 1.66, 342.62 12.57, 342 32 M310 0 C329.47 -1.28, 343.06 11.45, 342 32 M342 32 C343.02 108.91, 344.11 182.08, 342 228 M342 32 C342.35 108.82, 342.42 187.79, 342 228 M342 228 C341.55 249.73, 333.24 258.32, 310 260 M342 228 C344.15 248.1, 329.61 260.12, 310 260 M310 260 C219.45 258.91, 131.73 258.42, 32 260 M310 260 C245.26 260.89, 179.38 262.02, 32 260 M32 260 C11.48 259.61, -0.2 247.62, 0 228 M32 260 C8.56 259.45, -2.09 250.51, 0 228 M0 228 C-1.06 153.1, -0.16 76.52, 0 32 M0 228 C0.71 168.29, -0.22 108.39, 0 32 M0 32 C0.64 12.25, 11.78 -0.62, 32 0 M0 32 C-0.23 10.17, 10.84 1.89, 32 0" stroke="#1e1e1e" stroke-width="1" fill="none"></path></g><g transform="translate(693.8867212477182 1281.515181405204) rotate(0 149.1199951171875 125)"><text x="149.1199951171875" y="0" font-family="Virgil, Segoe UI Emoji" font-size="20px" fill="#1e1e1e" text-anchor="middle" style="white-space: pre;" direction="ltr" dominant-baseline="text-before-edge">DVUM6</text><text x="149.1199951171875" y="25" font-family="Virgil, Segoe UI Emoji" font-size="20px" fill="#1e1e1e" text-anchor="middle" style="white-space: pre;" direction="ltr" dominant-baseline="text-before-edge"></text><text x="149.1199951171875" y="50" font-family="Virgil, Segoe UI Emoji" font-size="20px" fill="#1e1e1e" text-anchor="middle" style="white-space: pre;" direction="ltr" dominant-baseline="text-before-edge">counter = counter - 1</text><text x="149.1199951171875" y="75" font-family="Virgil, Segoe UI Emoji" font-size="20px" fill="#1e1e1e" text-anchor="middle" style="white-space: pre;" direction="ltr" dominant-baseline="text-before-edge">alu = alu LSL 1</text><text x="149.1199951171875" y="100" font-family="Virgil, Segoe UI Emoji" font-size="20px" fill="#1e1e1e" text-anchor="middle" style="white-space: pre;" direction="ltr" dominant-baseline="text-before-edge">alu bit 0 = alue bit 15 </text><text x="149.1199951171875" y="125" font-family="Virgil, Segoe UI Emoji" font-size="20px" fill="#1e1e1e" text-anchor="middle" style="white-space: pre;" direction="ltr" dominant-baseline="text-before-edge">alue = alue LSL 1</text><text x="149.1199951171875" y="150" font-family="Virgil, Segoe UI Emoji" font-size="20px" fill="#1e1e1e" text-anchor="middle" style="white-space: pre;" direction="ltr" dominant-baseline="text-before-edge">alue bit 0 = 1</text><text x="149.1199951171875" y="175" font-family="Virgil, Segoe UI Emoji" font-size="20px" fill="#1e1e1e" text-anchor="middle" style="white-space: pre;" direction="ltr" dominant-baseline="text-before-edge"></text><text x="149.1199951171875" y="200" font-family="Virgil, Segoe UI Emoji" font-size="20px" fill="#1e1e1e" text-anchor="middle" style="white-space: pre;" direction="ltr" dominant-baseline="text-before-edge">Shift dividend left, set least </text><text x="149.1199951171875" y="225" font-family="Virgil, Segoe UI Emoji" font-size="20px" fill="#1e1e1e" text-anchor="middle" style="white-space: pre;" direction="ltr" dominant-baseline="text-before-edge">significant bit to one</text></g><g stroke-linecap="round" transform="translate(17.006716364905742 1314.3485147385381) rotate(0 171 97.5)"><path d="M32 0 M32 0 C109.8 0.76, 189.91 -0.08, 310 0 M32 0 C117.42 -0.39, 202.79 -0.52, 310 0 M310 0 C330.29 -1.35, 343.8 12.63, 342 32 M310 0 C333.17 -1.08, 341.41 9.89, 342 32 M342 32 C340.54 72.33, 340.27 112.39, 342 163 M342 32 C342.6 60.76, 343.25 90.75, 342 163 M342 163 C343.51 186.13, 332.19 195.89, 310 195 M342 163 C342.91 183.16, 329.33 193.43, 310 195 M310 195 C230.32 192.99, 152.7 192.93, 32 195 M310 195 C209.67 194.49, 111.54 195.27, 32 195 M32 195 C9.07 196.16, 1.89 185.01, 0 163 M32 195 C12.42 194.39, 0.09 183.53, 0 163 M0 163 C-0.05 125.79, -0.92 88.74, 0 32 M0 163 C1.63 130.74, 0.25 98.53, 0 32 M0 32 C0.1 9.02, 11.32 -1.35, 32 0 M0 32 C-1.3 10.16, 12.19 0.03, 32 0" stroke="#1e1e1e" stroke-width="1" fill="none"></path></g><g transform="translate(40.45671331314796 1336.8485147385381) rotate(0 147.5500030517578 75)"><text x="147.5500030517578" y="0" font-family="Virgil, Segoe UI Emoji" font-size="20px" fill="#1e1e1e" text-anchor="middle" style="white-space: pre;" direction="ltr" dominant-baseline="text-before-edge">DVUM7</text><text x="147.5500030517578" y="25" font-family="Virgil, Segoe UI Emoji" font-size="20px" fill="#1e1e1e" text-anchor="middle" style="white-space: pre;" direction="ltr" dominant-baseline="text-before-edge"></text><text x="147.5500030517578" y="50" font-family="Virgil, Segoe UI Emoji" font-size="20px" fill="#1e1e1e" text-anchor="middle" style="white-space: pre;" direction="ltr" dominant-baseline="text-before-edge">temp = alu</text><text x="147.5500030517578" y="75" font-family="Virgil, Segoe UI Emoji" font-size="20px" fill="#1e1e1e" text-anchor="middle" style="white-space: pre;" direction="ltr" dominant-baseline="text-before-edge">alu = alu - alb</text><text x="147.5500030517578" y="100" font-family="Virgil, Segoe UI Emoji" font-size="20px" fill="#1e1e1e" text-anchor="middle" style="white-space: pre;" direction="ltr" dominant-baseline="text-before-edge"></text><text x="147.5500030517578" y="125" font-family="Virgil, Segoe UI Emoji" font-size="20px" fill="#1e1e1e" text-anchor="middle" style="white-space: pre;" direction="ltr" dominant-baseline="text-before-edge">Subtract dividend from divisor</text></g><g stroke-linecap="round" transform="translate(1227.5333922249927 912.4334572383348) rotate(0 171 95.5)"><path d="M32 0 M32 0 C101.2 0.7, 169.7 -0.1, 310 0 M32 0 C99.66 0.35, 166.83 0.47, 310 0 M310 0 C332.19 1.33, 341.16 11.61, 342 32 M310 0 C329.45 -0.23, 341.77 12.46, 342 32 M342 32 C342.32 57.93, 342.98 86.52, 342 159 M342 32 C341.43 75.27, 342.16 115.95, 342 159 M342 159 C340.5 179.53, 332.87 189.08, 310 191 M342 159 C342.01 179.59, 329.52 189.22, 310 191 M310 191 C215.57 191.96, 118.48 192.42, 32 191 M310 191 C246.18 189.3, 181.68 189.85, 32 191 M32 191 C11.76 189.33, 1.96 178.95, 0 159 M32 191 C12.78 191.41, -1.78 181.26, 0 159 M0 159 C-2.31 128.04, -1.73 93.78, 0 32 M0 159 C-0.08 112.08, 0.19 64.68, 0 32 M0 32 C1.07 11.36, 9.21 1.82, 32 0 M0 32 C1.95 12.28, 9.97 0.59, 32 0" stroke="#1e1e1e" stroke-width="1" fill="none"></path></g><g transform="translate(1353.6933920724048 970.4334572383348) rotate(0 44.84000015258789 37.5)"><text x="44.84000015258789" y="0" font-family="Virgil, Segoe UI Emoji" font-size="20px" fill="#1e1e1e" text-anchor="middle" style="white-space: pre;" direction="ltr" dominant-baseline="text-before-edge">DVUMB</text><text x="44.84000015258789" y="25" font-family="Virgil, Segoe UI Emoji" font-size="20px" fill="#1e1e1e" text-anchor="middle" style="white-space: pre;" direction="ltr" dominant-baseline="text-before-edge"></text><text x="44.84000015258789" y="50" font-family="Virgil, Segoe UI Emoji" font-size="20px" fill="#1e1e1e" text-anchor="middle" style="white-space: pre;" direction="ltr" dominant-baseline="text-before-edge">Idle wait</text></g><g stroke-linecap="round" transform="translate(20.58872345515624 1633.0941434133629) rotate(0 171 95.5)"><path d="M32 0 M32 0 C107.56 1.35, 186.41 0.82, 310 0 M32 0 C89.24 -0.66, 147.65 0.33, 310 0 M310 0 C329.93 0.82, 343.91 12.13, 342 32 M310 0 C332.51 1.59, 344.18 8.55, 342 32 M342 32 C339.68 69.71, 342.09 105.46, 342 159 M342 32 C342.37 83.48, 342.7 133.11, 342 159 M342 159 C343.1 180.07, 330.29 191.91, 310 191 M342 159 C341.06 178.76, 333.1 192.92, 310 191 M310 191 C208.19 188.85, 108.42 188.34, 32 191 M310 191 C214.2 191.37, 117.96 191.7, 32 191 M32 191 C10.55 191.53, -1.79 181.9, 0 159 M32 191 C10 192.72, -1.05 178.34, 0 159 M0 159 C0.33 130.34, 0.94 103.53, 0 32 M0 159 C-0.98 111.08, -0.06 64.1, 0 32 M0 32 C0.83 11.06, 11.56 -1.67, 32 0 M0 32 C0.32 11.3, 11.1 0.24, 32 0" stroke="#1e1e1e" stroke-width="1" fill="none"></path></g><g transform="translate(51.728707586015645 1653.5941434133629) rotate(0 139.86001586914062 75)"><text x="139.86001586914062" y="0" font-family="Virgil, Segoe UI Emoji" font-size="20px" fill="#1e1e1e" text-anchor="middle" style="white-space: pre;" direction="ltr" dominant-baseline="text-before-edge">DVUM9</text><text x="139.86001586914062" y="25" font-family="Virgil, Segoe UI Emoji" font-size="20px" fill="#1e1e1e" text-anchor="middle" style="white-space: pre;" direction="ltr" dominant-baseline="text-before-edge"></text><text x="139.86001586914062" y="50" font-family="Virgil, Segoe UI Emoji" font-size="20px" fill="#1e1e1e" text-anchor="middle" style="white-space: pre;" direction="ltr" dominant-baseline="text-before-edge">Rx_High = alu</text><text x="139.86001586914062" y="75" font-family="Virgil, Segoe UI Emoji" font-size="20px" fill="#1e1e1e" text-anchor="middle" style="white-space: pre;" direction="ltr" dominant-baseline="text-before-edge">alu = alu &amp; 0</text><text x="139.86001586914062" y="100" font-family="Virgil, Segoe UI Emoji" font-size="20px" fill="#1e1e1e" text-anchor="middle" style="white-space: pre;" direction="ltr" dominant-baseline="text-before-edge"></text><text x="139.86001586914062" y="125" font-family="Virgil, Segoe UI Emoji" font-size="20px" fill="#1e1e1e" text-anchor="middle" style="white-space: pre;" direction="ltr" dominant-baseline="text-before-edge">Move remainder into register</text></g><g mask="url(#mask-3pBkdTBeLatsJJjWNBo1f)" stroke-linecap="round"><g transform="translate(188.08681933299977 1510.3485147385381) rotate(0 -0.5393275734373901 60.872814337412365)"><path d="M-0.59 0.63 C-0.67 20.69, 0.06 101.02, 0.05 121.3 M1.3 -0.08 C1.12 20.06, 0.11 102.55, -0.31 122.6" stroke="#1e1e1e" stroke-width="1" fill="none"></path></g><g transform="translate(188.08681933299977 1510.3485147385381) rotate(0 -0.5393275734373901 60.872814337412365)"><path d="M-9.07 96.13 C-7.27 104.78, -2.27 112.2, -0.25 121.83 M-10.17 94.25 C-8.91 101.34, -5.35 106.3, -1.06 123.17" stroke="#1e1e1e" stroke-width="1" fill="none"></path></g><g transform="translate(188.08681933299977 1510.3485147385381) rotate(0 -0.5393275734373901 60.872814337412365)"><path d="M11.44 96.45 C6.18 104.89, 4.12 112.2, -0.25 121.83 M10.35 94.57 C7.1 101.48, 6.15 106.36, -1.06 123.17" stroke="#1e1e1e" stroke-width="1" fill="none"></path></g></g><mask id="mask-3pBkdTBeLatsJJjWNBo1f"><rect x="0" y="0" fill="#fff" width="289.16547447987455" height="1732.0941434133629"></rect><rect x="128.16749069144714" y="1558.7213290759505" fill="#000" width="118.76000213623047" height="25" opacity="1"></rect></mask><g transform="translate(128.16749069144714 1558.7213290759505) rotate(0 60.27496182546821 12.884272393351353)"><text x="59.380001068115234" y="0" font-family="Virgil, Segoe UI Emoji" font-size="20px" fill="#1e1e1e" text-anchor="middle" style="white-space: pre;" direction="ltr" dominant-baseline="text-before-edge">counter = 0</text></g><g stroke-linecap="round" transform="translate(691.500000000002 906.5) rotate(0 171 97.5)"><path d="M32 0 M32 0 C139.7 1.77, 243.19 0.97, 310 0 M32 0 C136.26 1.53, 240.38 0.63, 310 0 M310 0 C331.51 -1.75, 342.66 10.91, 342 32 M310 0 C329.17 0.03, 344.02 11.51, 342 32 M342 32 C339.01 78.06, 339.27 125.76, 342 163 M342 32 C341.64 67.19, 340.89 101.55, 342 163 M342 163 C340.28 183, 330.67 193.78, 310 195 M342 163 C341.38 184.58, 332.4 196.62, 310 195 M310 195 C232.64 196.29, 156.32 196.32, 32 195 M310 195 C223.97 194.55, 138.64 195.68, 32 195 M32 195 C11.33 194.17, -0.87 183.3, 0 163 M32 195 C9.99 193.92, -1.56 183.65, 0 163 M0 163 C1.93 120.16, -0.2 73.85, 0 32 M0 163 C-1.53 130.34, 0.12 97.99, 0 32 M0 32 C-0.78 11.52, 10.44 -0.62, 32 0 M0 32 C1.01 12.21, 10.93 -1.73, 32 0" stroke="#1e1e1e" stroke-width="1" fill="none"></path></g><g transform="translate(714.9499969482442 929) rotate(0 147.5500030517578 75)"><text x="147.5500030517578" y="0" font-family="Virgil, Segoe UI Emoji" font-size="20px" fill="#1e1e1e" text-anchor="middle" style="white-space: pre;" direction="ltr" dominant-baseline="text-before-edge">DVUM8</text><text x="147.5500030517578" y="25" font-family="Virgil, Segoe UI Emoji" font-size="20px" fill="#1e1e1e" text-anchor="middle" style="white-space: pre;" direction="ltr" dominant-baseline="text-before-edge"></text><text x="147.5500030517578" y="50" font-family="Virgil, Segoe UI Emoji" font-size="20px" fill="#1e1e1e" text-anchor="middle" style="white-space: pre;" direction="ltr" dominant-baseline="text-before-edge">temp = alu</text><text x="147.5500030517578" y="75" font-family="Virgil, Segoe UI Emoji" font-size="20px" fill="#1e1e1e" text-anchor="middle" style="white-space: pre;" direction="ltr" dominant-baseline="text-before-edge">alu = alu - alb</text><text x="147.5500030517578" y="100" font-family="Virgil, Segoe UI Emoji" font-size="20px" fill="#1e1e1e" text-anchor="middle" style="white-space: pre;" direction="ltr" dominant-baseline="text-before-edge"></text><text x="147.5500030517578" y="125" font-family="Virgil, Segoe UI Emoji" font-size="20px" fill="#1e1e1e" text-anchor="middle" style="white-space: pre;" direction="ltr" dominant-baseline="text-before-edge">Subtract dividend from divisor</text></g><g stroke-linecap="round" transform="translate(1798.0000000000032 913.3333333333276) rotate(0 171.0000000000001 95.5)"><path d="M32 0 M32 0 C119.48 0.9, 205.91 -1.85, 310 0 M32 0 C113.38 1.12, 193.01 0.9, 310 0 M310 0 C330.45 -1.84, 342.92 8.77, 342 32 M310 0 C332.87 -0.41, 344.18 8.45, 342 32 M342 32 C343.97 72.16, 340.81 113.1, 342 159 M342 32 C342.26 68.33, 341.72 102.19, 342 159 M342 159 C342.57 179.89, 329.96 191.45, 310 191 M342 159 C343.88 178.08, 332.37 190.41, 310 191 M310 191 C241.37 193.9, 173.63 193.66, 32 191 M310 191 C240.42 190.45, 170.44 190.72, 32 191 M32 191 C10.56 191.08, 0.03 181.74, 0 159 M32 191 C8.8 192.71, -1.96 181.57, 0 159 M0 159 C0.52 113.05, -0.17 69.39, 0 32 M0 159 C1.04 114.29, -0.23 68.16, 0 32 M0 32 C1.6 11.5, 12.29 -1.28, 32 0 M0 32 C0.92 10.24, 11.57 -0.43, 32 0" stroke="#1e1e1e" stroke-width="1" fill="none"></path></g><g transform="translate(1844.7699813842805 946.3333333333276) rotate(0 124.23001861572277 62.5)"><text x="124.23001861572266" y="0" font-family="Virgil, Segoe UI Emoji" font-size="20px" fill="#1e1e1e" text-anchor="middle" style="white-space: pre;" direction="ltr" dominant-baseline="text-before-edge">DVUME</text><text x="124.23001861572266" y="25" font-family="Virgil, Segoe UI Emoji" font-size="20px" fill="#1e1e1e" text-anchor="middle" style="white-space: pre;" direction="ltr" dominant-baseline="text-before-edge"></text><text x="124.23001861572266" y="50" font-family="Virgil, Segoe UI Emoji" font-size="20px" fill="#1e1e1e" text-anchor="middle" style="white-space: pre;" direction="ltr" dominant-baseline="text-before-edge">alu = temp &amp; 0xFFFF</text><text x="124.23001861572266" y="75" font-family="Virgil, Segoe UI Emoji" font-size="20px" fill="#1e1e1e" text-anchor="middle" style="white-space: pre;" direction="ltr" dominant-baseline="text-before-edge"></text><text x="124.23001861572266" y="100" font-family="Virgil, Segoe UI Emoji" font-size="20px" fill="#1e1e1e" text-anchor="middle" style="white-space: pre;" direction="ltr" dominant-baseline="text-before-edge">Restore previous dividend</text></g><g stroke-linecap="round"><g transform="translate(1970.2000520199606 907.4238852113338) rotate(0 -834.078975220189 -31.679951469504203)"><path d="M0.58 0.73 C-103.87 -9.77, -347.97 -60.06, -626.02 -63.84 C-904.07 -67.61, -1494.35 -28.68, -1667.71 -21.9 M-0.58 0.07 C-105.23 -10.22, -348.85 -58.7, -626.88 -62.69 C-904.9 -66.68, -1495.65 -30.61, -1668.74 -23.88" stroke="#1e1e1e" stroke-width="1" fill="none"></path></g><g transform="translate(1970.2000520199606 907.4238852113338) rotate(0 -834.078975220189 -31.679951469504203)"><path d="M-1639.86 -35.2 C-1652.25 -32.07, -1659.7 -25.38, -1669.64 -23.41 M-1641.03 -35.9 C-1649.98 -32.03, -1657.47 -28.17, -1668.13 -23.79" stroke="#1e1e1e" stroke-width="1" fill="none"></path></g><g transform="translate(1970.2000520199606 907.4238852113338) rotate(0 -834.078975220189 -31.679951469504203)"><path d="M-1638.86 -14.7 C-1651.46 -18.87, -1659.27 -19.48, -1669.64 -23.41 M-1640.03 -15.41 C-1649.34 -17.46, -1657.11 -19.52, -1668.13 -23.79" stroke="#1e1e1e" stroke-width="1" fill="none"></path></g></g><mask></mask><g stroke-linecap="round" transform="translate(679.047621091207 1628.92209982872) rotate(0 171 95.5)"><path d="M32 0 M32 0 C96.07 2.3, 157.6 2.57, 310 0 M32 0 C141.77 0.24, 251.39 0.87, 310 0 M310 0 C333.22 -0.6, 340.71 10.92, 342 32 M310 0 C332.69 -1.34, 341.23 8.72, 342 32 M342 32 C340.84 67.12, 341.3 103.51, 342 159 M342 32 C342.33 63.02, 340.77 94.92, 342 159 M342 159 C342.96 179.71, 329.75 192, 310 191 M342 159 C340.7 178.31, 331.57 189.59, 310 191 M310 191 C254.26 193.92, 196.92 193.38, 32 191 M310 191 C242.66 193.62, 175.95 192.59, 32 191 M32 191 C10.06 190.43, 1.71 182.19, 0 159 M32 191 C9.9 189.78, -0.29 181.66, 0 159 M0 159 C1.07 111.95, 0.02 63.56, 0 32 M0 159 C0.88 130.8, 2.19 103.31, 0 32 M0 32 C-1.47 10.49, 9.26 -0.22, 32 0 M0 32 C0.54 9.94, 9.48 -2.16, 32 0" stroke="#1e1e1e" stroke-width="1" fill="none"></path></g><g transform="translate(710.1876052220664 1649.42209982872) rotate(0 139.86001586914062 75)"><text x="139.86001586914062" y="0" font-family="Virgil, Segoe UI Emoji" font-size="20px" fill="#1e1e1e" text-anchor="middle" style="white-space: pre;" direction="ltr" dominant-baseline="text-before-edge">DVUMC</text><text x="139.86001586914062" y="25" font-family="Virgil, Segoe UI Emoji" font-size="20px" fill="#1e1e1e" text-anchor="middle" style="white-space: pre;" direction="ltr" dominant-baseline="text-before-edge"></text><text x="139.86001586914062" y="50" font-family="Virgil, Segoe UI Emoji" font-size="20px" fill="#1e1e1e" text-anchor="middle" style="white-space: pre;" direction="ltr" dominant-baseline="text-before-edge">Rx_High = alu</text><text x="139.86001586914062" y="75" font-family="Virgil, Segoe UI Emoji" font-size="20px" fill="#1e1e1e" text-anchor="middle" style="white-space: pre;" direction="ltr" dominant-baseline="text-before-edge">alu = alu &amp; 0</text><text x="139.86001586914062" y="100" font-family="Virgil, Segoe UI Emoji" font-size="20px" fill="#1e1e1e" text-anchor="middle" style="white-space: pre;" direction="ltr" dominant-baseline="text-before-edge"></text><text x="139.86001586914062" y="125" font-family="Virgil, Segoe UI Emoji" font-size="20px" fill="#1e1e1e" text-anchor="middle" style="white-space: pre;" direction="ltr" dominant-baseline="text-before-edge">Move remainder into register</text></g><g stroke-linecap="round" transform="translate(25.214287757873535 1959.92209982872) rotate(0 171 117.5)"><path d="M32 0 M32 0 C125.53 -1.68, 220.85 -0.5, 310 0 M32 0 C115.51 -1, 198.33 -0.62, 310 0 M310 0 C331.28 -0.13, 342.15 10.11, 342 32 M310 0 C332 -2.08, 344.27 9.64, 342 32 M342 32 C340.76 86.02, 339.59 144.68, 342 203 M342 32 C342.39 69.12, 342.05 105.29, 342 203 M342 203 C341.62 225.67, 329.52 236.96, 310 235 M342 203 C342.66 225.39, 331.72 235.85, 310 235 M310 235 C229.12 237.8, 150.83 237.94, 32 235 M310 235 C205.54 236.95, 101.98 236.65, 32 235 M32 235 C11.52 234.36, 1.44 224.48, 0 203 M32 235 C9.93 235.68, -1.41 225.51, 0 203 M0 203 C-1.77 136.07, 1.01 68.36, 0 32 M0 203 C-1.46 156.92, -2.01 109.31, 0 32 M0 32 C-0.54 9.88, 10.02 -1.02, 32 0 M0 32 C-0.8 9.15, 10.44 -1.52, 32 0" stroke="#1e1e1e" stroke-width="1" fill="none"></path></g><g transform="translate(78.00428104400635 1964.92209982872) rotate(0 118.21000671386719 112.5)"><text x="118.21000671386719" y="0" font-family="Virgil, Segoe UI Emoji" font-size="20px" fill="#1e1e1e" text-anchor="middle" style="white-space: pre;" direction="ltr" dominant-baseline="text-before-edge">DVUMD</text><text x="118.21000671386719" y="25" font-family="Virgil, Segoe UI Emoji" font-size="20px" fill="#1e1e1e" text-anchor="middle" style="white-space: pre;" direction="ltr" dominant-baseline="text-before-edge"></text><text x="118.21000671386719" y="50" font-family="Virgil, Segoe UI Emoji" font-size="20px" fill="#1e1e1e" text-anchor="middle" style="white-space: pre;" direction="ltr" dominant-baseline="text-before-edge">alub = alu</text><text x="118.21000671386719" y="75" font-family="Virgil, Segoe UI Emoji" font-size="20px" fill="#1e1e1e" text-anchor="middle" style="white-space: pre;" direction="ltr" dominant-baseline="text-before-edge">alu = alu LSL 1</text><text x="118.21000671386719" y="100" font-family="Virgil, Segoe UI Emoji" font-size="20px" fill="#1e1e1e" text-anchor="middle" style="white-space: pre;" direction="ltr" dominant-baseline="text-before-edge">alu bit 0 = alue bit 15 </text><text x="118.21000671386719" y="125" font-family="Virgil, Segoe UI Emoji" font-size="20px" fill="#1e1e1e" text-anchor="middle" style="white-space: pre;" direction="ltr" dominant-baseline="text-before-edge">alue = alue LSL 1</text><text x="118.21000671386719" y="150" font-family="Virgil, Segoe UI Emoji" font-size="20px" fill="#1e1e1e" text-anchor="middle" style="white-space: pre;" direction="ltr" dominant-baseline="text-before-edge">alue bit 0 = 1</text><text x="118.21000671386719" y="175" font-family="Virgil, Segoe UI Emoji" font-size="20px" fill="#1e1e1e" text-anchor="middle" style="white-space: pre;" direction="ltr" dominant-baseline="text-before-edge"></text><text x="118.21000671386719" y="200" font-family="Virgil, Segoe UI Emoji" font-size="20px" fill="#1e1e1e" text-anchor="middle" style="white-space: pre;" direction="ltr" dominant-baseline="text-before-edge">Set Quotient LSB to 1</text></g><g stroke-linecap="round"><g transform="translate(183.71428775787354 1834.17209982872) rotate(0 1.25 60)"><path d="M1.14 -0.74 C1.52 18.97, 2.53 98.85, 2.6 118.8 M0.27 1.48 C0.48 21.25, 1.1 100, 1.71 119.71" stroke="#1e1e1e" stroke-width="1" fill="none"></path></g><g transform="translate(183.71428775787354 1834.17209982872) rotate(0 1.25 60)"><path d="M-10.29 91.88 C-7.44 99.09, -3.65 108.72, 3 118.93 M-8.15 91.47 C-6.83 97.86, -4.28 104, 1.05 119.38" stroke="#1e1e1e" stroke-width="1" fill="none"></path></g><g transform="translate(183.71428775787354 1834.17209982872) rotate(0 1.25 60)"><path d="M10.23 91.52 C6.43 99.04, 3.58 108.78, 3 118.93 M12.36 91.11 C8.92 97.63, 6.68 103.86, 1.05 119.38" stroke="#1e1e1e" stroke-width="1" fill="none"></path></g></g><mask></mask><g stroke-linecap="round" transform="translate(674.0476210912066 1937.92209982872) rotate(0 171 142.5)"><path d="M32 0 M32 0 C100.39 2.1, 168.13 2.6, 310 0 M32 0 C123.07 1.23, 214.88 0.77, 310 0 M310 0 C332.34 -1.02, 340.67 9.71, 342 32 M310 0 C331.05 -0.55, 343.02 12.95, 342 32 M342 32 C341.25 110.69, 339.02 192.01, 342 253 M342 32 C340.83 104.06, 340.02 175.81, 342 253 M342 253 C340.75 273.92, 331.05 286.91, 310 285 M342 253 C341.61 273.55, 332.54 284.95, 310 285 M310 285 C252.08 286.53, 196.86 285.86, 32 285 M310 285 C248.51 286.2, 187.49 286.64, 32 285 M32 285 C10.33 284.19, -1.76 273.05, 0 253 M32 285 C11 284.08, -0.16 276.13, 0 253 M0 253 C1.48 188.21, 1.41 120.62, 0 32 M0 253 C-0.96 170.67, -0.67 87.37, 0 32 M0 32 C1.78 11.02, 9.57 -1.25, 32 0 M0 32 C0.23 10.56, 11.87 -0.25, 32 0" stroke="#1e1e1e" stroke-width="1" fill="none"></path></g><g transform="translate(679.2476180394488 1942.92209982872) rotate(0 165.8000030517578 137.5)"><text x="165.8000030517578" y="0" font-family="Virgil, Segoe UI Emoji" font-size="20px" fill="#1e1e1e" text-anchor="middle" style="white-space: pre;" direction="ltr" dominant-baseline="text-before-edge">DVUMF</text><text x="165.8000030517578" y="25" font-family="Virgil, Segoe UI Emoji" font-size="20px" fill="#1e1e1e" text-anchor="middle" style="white-space: pre;" direction="ltr" dominant-baseline="text-before-edge"></text><text x="165.8000030517578" y="50" font-family="Virgil, Segoe UI Emoji" font-size="20px" fill="#1e1e1e" text-anchor="middle" style="white-space: pre;" direction="ltr" dominant-baseline="text-before-edge">Rx_High = temp</text><text x="165.8000030517578" y="75" font-family="Virgil, Segoe UI Emoji" font-size="20px" fill="#1e1e1e" text-anchor="middle" style="white-space: pre;" direction="ltr" dominant-baseline="text-before-edge">alub = alu</text><text x="165.8000030517578" y="100" font-family="Virgil, Segoe UI Emoji" font-size="20px" fill="#1e1e1e" text-anchor="middle" style="white-space: pre;" direction="ltr" dominant-baseline="text-before-edge">alu = alu LSL 1</text><text x="165.8000030517578" y="125" font-family="Virgil, Segoe UI Emoji" font-size="20px" fill="#1e1e1e" text-anchor="middle" style="white-space: pre;" direction="ltr" dominant-baseline="text-before-edge">alu bit 0 = alue bit 15 </text><text x="165.8000030517578" y="150" font-family="Virgil, Segoe UI Emoji" font-size="20px" fill="#1e1e1e" text-anchor="middle" style="white-space: pre;" direction="ltr" dominant-baseline="text-before-edge">alue = alue LSL 1</text><text x="165.8000030517578" y="175" font-family="Virgil, Segoe UI Emoji" font-size="20px" fill="#1e1e1e" text-anchor="middle" style="white-space: pre;" direction="ltr" dominant-baseline="text-before-edge">alue bit 0 = 0</text><text x="165.8000030517578" y="200" font-family="Virgil, Segoe UI Emoji" font-size="20px" fill="#1e1e1e" text-anchor="middle" style="white-space: pre;" direction="ltr" dominant-baseline="text-before-edge"></text><text x="165.8000030517578" y="225" font-family="Virgil, Segoe UI Emoji" font-size="20px" fill="#1e1e1e" text-anchor="middle" style="white-space: pre;" direction="ltr" dominant-baseline="text-before-edge">Set Quotient LSB to 0, Correct </text><text x="165.8000030517578" y="250" font-family="Virgil, Segoe UI Emoji" font-size="20px" fill="#1e1e1e" text-anchor="middle" style="white-space: pre;" direction="ltr" dominant-baseline="text-before-edge">Rx_High</text></g><g mask="url(#mask-Xti5fiwPe3-kGuT1skwmB)" stroke-linecap="round"><g transform="translate(189.71428775787365 1151.0872701152878) rotate(0 -2.9741239480594004 81.939219962312)"><path d="M-0.09 0.69 C-0.98 12.1, -4.89 41.98, -5.21 69.01 C-5.53 96.04, -2.9 147.27, -2.02 162.88 M-1.6 0.01 C-2.67 11.02, -6.59 39.93, -6.27 67.24 C-5.95 94.55, -0.24 147.85, 0.34 163.87" stroke="#1e1e1e" stroke-width="1" fill="none"></path></g><g transform="translate(189.71428775787365 1151.0872701152878) rotate(0 -2.9741239480594004 81.939219962312)"><path d="M-10.75 136.13 C-6.87 143.24, -5.26 155.17, -1.01 162.97 M-11.54 137.4 C-9.12 141.84, -5.53 147.42, -0.25 164.2" stroke="#1e1e1e" stroke-width="1" fill="none"></path></g><g transform="translate(189.71428775787365 1151.0872701152878) rotate(0 -2.9741239480594004 81.939219962312)"><path d="M9.72 134.67 C7.29 142.21, 2.6 154.59, -1.01 162.97 M8.93 135.94 C6.99 140.52, 6.2 146.42, -0.25 164.2" stroke="#1e1e1e" stroke-width="1" fill="none"></path></g></g><mask id="mask-Xti5fiwPe3-kGuT1skwmB"><rect x="0" y="0" fill="#fff" width="294.7142877578739" height="1414.587270115288"></rect><rect x="75.31429386138905" y="1194.4220998287199" fill="#000" width="218.79998779296875" height="50" opacity="1"></rect></mask><g transform="translate(75.31429386138905 1194.42209982872) rotate(0 111.4258699484252 38.60439024887967)"><text x="109.39999389648438" y="0" font-family="Virgil, Segoe UI Emoji" font-size="20px" fill="#1e1e1e" text-anchor="middle" style="white-space: pre;" direction="ltr" dominant-baseline="text-before-edge">Old Dividend MSB = 1 </text><text x="109.39999389648438" y="25" font-family="Virgil, Segoe UI Emoji" font-size="20px" fill="#1e1e1e" text-anchor="middle" style="white-space: pre;" direction="ltr" dominant-baseline="text-before-edge">(n = true)</text></g><g mask="url(#mask-e1CyLFu0gS36OCkT2e6Eg)" stroke-linecap="round"><g transform="translate(1045.9817818070806 1082.1853037746357) rotate(0 27.37448605022439 338.7243845257175)"><path d="M-0.38 -0.82 C11.9 15.3, 77.68 -15.64, 74.78 97.59 C71.87 210.82, -2.33 581.8, -17.8 678.55 M1.63 1.37 C13.73 17.58, 77.64 -13.65, 74.38 98.92 C71.12 211.49, -2.66 580.63, -17.95 676.78" stroke="#1e1e1e" stroke-width="1" fill="none"></path></g><g transform="translate(1045.9817818070806 1082.1853037746357) rotate(0 27.37448605022439 338.7243845257175)"><path d="M-24.46 648.97 C-21.5 660.91, -16.98 672.12, -16.95 678.78 M-22.78 646.26 C-20.62 655.97, -19.94 666.3, -17.1 677.39" stroke="#1e1e1e" stroke-width="1" fill="none"></path></g><g transform="translate(1045.9817818070806 1082.1853037746357) rotate(0 27.37448605022439 338.7243845257175)"><path d="M-4.25 652.58 C-9.33 663.02, -12.8 672.81, -16.95 678.78 M-2.58 649.87 C-7.12 658.54, -13.13 667.67, -17.1 677.39" stroke="#1e1e1e" stroke-width="1" fill="none"></path></g></g><mask id="mask-e1CyLFu0gS36OCkT2e6Eg"><rect x="0" y="0" fill="#fff" width="1238.6978216082173" height="1859.6340728260707"></rect><rect x="1060.334286689758" y="1167.6720998287199" fill="#000" width="118.76000213623047" height="25" opacity="1"></rect></mask><g transform="translate(1060.3342866897583 1167.67209982872) rotate(0 14.108358017976343 253.37799095110313)"><text x="59.380001068115234" y="0" font-family="Virgil, Segoe UI Emoji" font-size="20px" fill="#1e1e1e" text-anchor="middle" style="white-space: pre;" direction="ltr" dominant-baseline="text-before-edge">counter = 0</text></g><g mask="url(#mask-pxlQ23tIx_1mEBUplnSC0)" stroke-linecap="round"><g transform="translate(677.5476210912068 1744.3690865920048) rotate(0 -241.91666666666657 104.27650661835764)"><path d="M0.38 -0.8 C-41.02 17.91, -167.29 76.99, -248.06 112.07 C-328.84 147.14, -445.04 193.56, -484.27 209.63 M-0.88 1.39 C-42.39 19.8, -167.88 76.07, -248.61 110.48 C-329.34 144.89, -446.2 191.34, -485.27 207.85" stroke="#1e1e1e" stroke-width="1" fill="none"></path></g><g transform="translate(677.5476210912068 1744.3690865920048) rotate(0 -241.91666666666657 104.27650661835764)"><path d="M-464.42 188.93 C-468.7 193.61, -475.86 201.62, -485.36 208.34 M-463.46 186.98 C-471.49 194.64, -479.51 201.12, -486.09 207.98" stroke="#1e1e1e" stroke-width="1" fill="none"></path></g><g transform="translate(677.5476210912068 1744.3690865920048) rotate(0 -241.91666666666657 104.27650661835764)"><path d="M-456.62 207.91 C-463.43 206.4, -473.14 208.18, -485.36 208.34 M-455.66 205.96 C-466.31 206.88, -477.07 206.68, -486.09 207.98" stroke="#1e1e1e" stroke-width="1" fill="none"></path></g></g><mask id="mask-pxlQ23tIx_1mEBUplnSC0"><rect x="0" y="0" fill="#fff" width="1261.38095442454" height="2052.92209982872"></rect><rect x="329.7442941665647" y="1842.92209982872" fill="#000" width="197.9399871826172" height="25" opacity="1"></rect></mask><g transform="translate(329.7442941665647 1842.92209982872) rotate(0 105.36220435847707 5.861501327954784)"><text x="98.9699935913086" y="0" font-family="Virgil, Segoe UI Emoji" font-size="20px" fill="#1e1e1e" text-anchor="middle" style="white-space: pre;" direction="ltr" dominant-baseline="text-before-edge">no carry (c = false)</text></g><g mask="url(#mask-B_d_IxEKlBxscRd_b59BX)" stroke-linecap="round"><g transform="translate(866.4615006424535 1824.42209982872) rotate(0 -1.79487198904269 52.75)"><path d="M0.98 -0.22 C0.63 17.7, -1.96 88.79, -2.67 106.43 M0.03 -1.39 C-0.35 16.3, -2.48 86.73, -3.13 104.8" stroke="#1e1e1e" stroke-width="1" fill="none"></path></g><g transform="translate(866.4615006424535 1824.42209982872) rotate(0 -1.79487198904269 52.75)"><path d="M-12.84 77.83 C-8.8 83.99, -7.8 90.06, -1.25 106.34 M-13.38 77.18 C-10.24 83.04, -7.29 90.56, -3.91 105.54" stroke="#1e1e1e" stroke-width="1" fill="none"></path></g><g transform="translate(866.4615006424535 1824.42209982872) rotate(0 -1.79487198904269 52.75)"><path d="M7.67 78.49 C6.51 84.66, 2.3 90.56, -1.25 106.34 M7.13 77.85 C4.79 83.52, 2.26 90.86, -3.91 105.54" stroke="#1e1e1e" stroke-width="1" fill="none"></path></g></g><mask id="mask-B_d_IxEKlBxscRd_b59BX"><rect x="0" y="0" fill="#fff" width="970.0512446205389" height="2029.92209982872"></rect><rect x="784.8666256016529" y="1864.67209982872" fill="#000" width="159.60000610351562" height="25" opacity="1"></rect></mask><g transform="translate(784.8666256016529 1864.67209982872) rotate(0 80.5199977871265 12.271477777338532)"><text x="79.80000305175781" y="0" font-family="Virgil, Segoe UI Emoji" font-size="20px" fill="#1e1e1e" text-anchor="middle" style="white-space: pre;" direction="ltr" dominant-baseline="text-before-edge">carry (c = true)</text></g><g mask="url(#mask-guhwMzD8Di7a3Nh2iZLdl)" stroke-linecap="round"><g transform="translate(1570.5333922249927 1010.7044598224898) rotate(0 110.64194824653237 -0.6910639845560809)"><path d="M0.3 0.92 C37.12 0.56, 184.91 -1.82, 221.85 -2.12 M-1 0.36 C35.63 0.14, 184.12 -0.42, 221.2 -0.97" stroke="#1e1e1e" stroke-width="1" fill="none"></path></g><g transform="translate(1570.5333922249927 1010.7044598224898) rotate(0 110.64194824653237 -0.6910639845560809)"><path d="M194.63 10.48 C202.54 6.58, 215.32 0.04, 219.74 -2.52 M194.05 9.9 C201.01 6.7, 208.23 3.02, 221.5 -1.5" stroke="#1e1e1e" stroke-width="1" fill="none"></path></g><g transform="translate(1570.5333922249927 1010.7044598224898) rotate(0 110.64194824653237 -0.6910639845560809)"><path d="M194.46 -10.04 C202.43 -6.15, 215.28 -4.9, 219.74 -2.52 M193.87 -10.62 C201.07 -8.03, 208.34 -5.91, 221.5 -1.5" stroke="#1e1e1e" stroke-width="1" fill="none"></path></g></g><mask id="mask-guhwMzD8Di7a3Nh2iZLdl"><rect x="0" y="0" fill="#fff" width="1891.8172887180574" height="1112.086587791602"></rect><rect x="1601.3753374197672" y="997.5133958379338" fill="#000" width="159.60000610351562" height="25" opacity="1"></rect></mask><g transform="translate(1601.375337419767 997.5133958379338) rotate(0 79.58694446934851 12.590700797736531)"><text x="79.80000305175781" y="0" font-family="Virgil, Segoe UI Emoji" font-size="20px" fill="#1e1e1e" text-anchor="middle" style="white-space: pre;" direction="ltr" dominant-baseline="text-before-edge">carry (c = true)</text></g><g mask="url(#mask-5Uo14M-3iBjPYxv2qI1Tl)" stroke-linecap="round"><g transform="translate(355.71428775787354 1002.9212141493135) rotate(0 165.99754411140924 -3.1735154821844844)"><path d="M0.33 0.99 C55.84 0.19, 277.7 -4.37, 332.94 -5.83 M-0.95 0.47 C54.49 -0.55, 277.18 -6.11, 332.49 -7.34" stroke="#1e1e1e" stroke-width="1" fill="none"></path></g><g transform="translate(355.71428775787354 1002.9212141493135) rotate(0 165.99754411140924 -3.1735154821844844)"><path d="M306.2 5.16 C314.76 -0.04, 319.66 -0.87, 334.47 -9.16 M304.47 3.7 C314.65 -0.19, 323.54 -3.76, 333.45 -7.4" stroke="#1e1e1e" stroke-width="1" fill="none"></path></g><g transform="translate(355.71428775787354 1002.9212141493135) rotate(0 165.99754411140924 -3.1735154821844844)"><path d="M305.72 -15.36 C314.24 -14.58, 319.28 -9.41, 334.47 -9.16 M303.99 -16.81 C314.29 -13.82, 323.35 -10.49, 333.45 -7.4" stroke="#1e1e1e" stroke-width="1" fill="none"></path></g></g><mask id="mask-5Uo14M-3iBjPYxv2qI1Tl"><rect x="0" y="0" fill="#fff" width="787.7142877578735" height="1109.9329851065525"></rect><rect x="408.14429569244385" y="974.4153286706942" fill="#000" width="227.13998413085938" height="50" opacity="1"></rect></mask><g transform="translate(408.14429569244385 974.4153286706942) rotate(0 113.56753617683893 25.332369996434863)"><text x="113.56999206542969" y="0" font-family="Virgil, Segoe UI Emoji" font-size="20px" fill="#1e1e1e" text-anchor="middle" style="white-space: pre;" direction="ltr" dominant-baseline="text-before-edge">Old Dividend MSB = 0 </text><text x="113.56999206542969" y="25" font-family="Virgil, Segoe UI Emoji" font-size="20px" fill="#1e1e1e" text-anchor="middle" style="white-space: pre;" direction="ltr" dominant-baseline="text-before-edge">(n = false)</text></g><g mask="url(#mask-NOq-MiX2qaxNrsuQJ3oCB)" stroke-linecap="round"><g transform="translate(359.71428775787354 1472.17209982872) rotate(0 152 16)"><path d="M-0.54 0.82 C24.61 6.08, 100.45 31.08, 151.13 30.87 C201.82 30.67, 277.93 4.68, 303.55 -0.43 M1.38 0.21 C26.88 5.63, 103.2 31.74, 153.39 31.82 C203.59 31.9, 277.2 5.73, 302.56 0.66" stroke="#1e1e1e" stroke-width="1" fill="none"></path></g><g transform="translate(359.71428775787354 1472.17209982872) rotate(0 152 16)"><path d="M279.3 16.35 C284.08 11.65, 293.17 8.3, 302.91 1.45 M276.95 17.65 C282.69 13.66, 289.56 11.05, 302.53 0.57" stroke="#1e1e1e" stroke-width="1" fill="none"></path></g><g transform="translate(359.71428775787354 1472.17209982872) rotate(0 152 16)"><path d="M274.05 -3.48 C280.41 -1.78, 291.19 1.26, 302.91 1.45 M271.69 -2.19 C278.64 -1.79, 286.67 0, 302.53 0.57" stroke="#1e1e1e" stroke-width="1" fill="none"></path></g></g><mask id="mask-NOq-MiX2qaxNrsuQJ3oCB"><rect x="0" y="0" fill="#fff" width="763.7142877578735" height="1604.17209982872"></rect><rect x="449.37428760528564" y="1491.67209982872" fill="#000" width="124.68000030517578" height="25" opacity="1"></rect></mask><g transform="translate(449.37428760528564 1491.67209982872) rotate(0 61.84882731884716 -3.804789914574826)"><text x="62.34000015258789" y="0" font-family="Virgil, Segoe UI Emoji" font-size="20px" fill="#1e1e1e" text-anchor="middle" style="white-space: pre;" direction="ltr" dominant-baseline="text-before-edge">counter != 0</text></g><g mask="url(#mask-BHlGZxZpblb3400qfsUX8)" stroke-linecap="round"><g transform="translate(667.7142877578735 1346.17209982872) rotate(0 -154.94068791107742 -5.285464270977968)"><path d="M0.18 -0.26 C-25.11 -3.66, -99.54 -23.19, -151.16 -21.23 C-202.78 -19.27, -282.98 5.82, -309.54 11.51 M-1.18 -1.44 C-26.17 -5.11, -97.58 -25.29, -149.06 -22.95 C-200.54 -20.62, -283.14 6.95, -310.06 12.57" stroke="#1e1e1e" stroke-width="1" fill="none"></path></g><g transform="translate(667.7142877578735 1346.17209982872) rotate(0 -154.94068791107742 -5.285464270977968)"><path d="M-285.84 -6.47 C-292.83 2.22, -303.5 6.49, -308.61 12.61 M-284.75 -5.27 C-293.97 0.34, -301.41 6.15, -310.28 13.54" stroke="#1e1e1e" stroke-width="1" fill="none"></path></g><g transform="translate(667.7142877578735 1346.17209982872) rotate(0 -154.94068791107742 -5.285464270977968)"><path d="M-280.62 13.38 C-289.28 15.18, -301.77 12.53, -308.61 12.61 M-279.54 14.58 C-290.45 13.39, -299.67 12.45, -310.28 13.54" stroke="#1e1e1e" stroke-width="1" fill="none"></path></g></g><mask id="mask-BHlGZxZpblb3400qfsUX8"><rect x="0" y="0" fill="#fff" width="1077.7142877578735" height="1480.17209982872"></rect><rect x="408.31429386138916" y="1299.17209982872" fill="#000" width="218.79998779296875" height="50" opacity="1"></rect></mask><g transform="translate(408.31429386138916 1299.17209982872) rotate(0 104.45930598540696 41.71453572902203)"><text x="109.39999389648438" y="0" font-family="Virgil, Segoe UI Emoji" font-size="20px" fill="#1e1e1e" text-anchor="middle" style="white-space: pre;" direction="ltr" dominant-baseline="text-before-edge">Old Dividend MSB = 1 </text><text x="109.39999389648438" y="25" font-family="Virgil, Segoe UI Emoji" font-size="20px" fill="#1e1e1e" text-anchor="middle" style="white-space: pre;" direction="ltr" dominant-baseline="text-before-edge">(n = true)</text></g><g mask="url(#mask-Ma4ECm-yFtxC0khAcbE72)" stroke-linecap="round"><g transform="translate(857.7142877578733 1268.17209982872) rotate(0 -1.0374551015287352 -78.28661321482161)"><path d="M-0.98 0.41 C-1.37 -25.51, -2.68 -129.22, -2.78 -155.26 M0.7 -0.41 C0.74 -26.7, -0.01 -131.33, -0.48 -156.99" stroke="#1e1e1e" stroke-width="1" fill="none"></path></g><g transform="translate(857.7142877578733 1268.17209982872) rotate(0 -1.0374551015287352 -78.28661321482161)"><path d="M10.8 -130.22 C8.53 -135.64, 4.9 -144.23, -1.87 -156.15 M9.8 -128.08 C8.51 -134.24, 5.03 -141.02, -0.14 -157.28" stroke="#1e1e1e" stroke-width="1" fill="none"></path></g><g transform="translate(857.7142877578733 1268.17209982872) rotate(0 -1.0374551015287352 -78.28661321482161)"><path d="M-9.72 -129.98 C-6.64 -135.29, -4.91 -143.95, -1.87 -156.15 M-10.72 -127.84 C-7.42 -134.08, -6.33 -140.91, -0.14 -157.28" stroke="#1e1e1e" stroke-width="1" fill="none"></path></g></g><mask id="mask-Ma4ECm-yFtxC0khAcbE72"><rect x="0" y="0" fill="#fff" width="959.7142877578733" height="1524.17209982872"></rect><rect x="748.1442956924436" y="1165.17209982872" fill="#000" width="217.13998413085938" height="50" opacity="1"></rect></mask><g transform="translate(748.1442956924436 1165.17209982872) rotate(0 108.53253696390095 24.713386785178386)"><text x="108.56999206542969" y="0" font-family="Virgil, Segoe UI Emoji" font-size="20px" fill="#1e1e1e" text-anchor="middle" style="white-space: pre;" direction="ltr" dominant-baseline="text-before-edge">Old Dividend MSB = 0</text><text x="108.56999206542969" y="25" font-family="Virgil, Segoe UI Emoji" font-size="20px" fill="#1e1e1e" text-anchor="middle" style="white-space: pre;" direction="ltr" dominant-baseline="text-before-edge">(n = false)</text></g><g mask="url(#mask-Q2680C2RokhSchJzV8iB3)" stroke-linecap="round"><g transform="translate(1037.7142877578733 1004.8948231814991) rotate(0 90 0.8205536606420765)"><path d="M-0.25 -0.83 C29.77 -0.76, 150 1.25, 179.88 1.51 M1.81 1.34 C31.69 2.13, 148.94 2.94, 178.87 2.98" stroke="#1e1e1e" stroke-width="1" fill="none"></path></g><g transform="translate(1037.7142877578733 1004.8948231814991) rotate(0 90 0.8205536606420765)"><path d="M149.24 12.91 C158.17 8.71, 164.75 7.19, 177.73 1.05 M150.83 12.42 C159.49 10.13, 167.14 6.8, 178.87 2.69" stroke="#1e1e1e" stroke-width="1" fill="none"></path></g><g transform="translate(1037.7142877578733 1004.8948231814991) rotate(0 90 0.8205536606420765)"><path d="M149.34 -7.61 C158.43 -6.1, 164.97 -1.93, 177.73 1.05 M150.93 -8.1 C159.74 -4.22, 167.36 -1.38, 178.87 2.69" stroke="#1e1e1e" stroke-width="1" fill="none"></path></g></g><mask id="mask-Q2680C2RokhSchJzV8iB3"><rect x="0" y="0" fill="#fff" width="1317.7142877578733" height="1106.5359305027832"></rect><rect x="1065.3742876052856" y="993.2153768421415" fill="#000" width="124.68000030517578" height="25" opacity="1"></rect></mask><g transform="translate(1065.3742876052856 993.2153768421413) rotate(0 62.153468255698726 12.753944559818933)"><text x="62.34000015258789" y="0" font-family="Virgil, Segoe UI Emoji" font-size="20px" fill="#1e1e1e" text-anchor="middle" style="white-space: pre;" direction="ltr" dominant-baseline="text-before-edge">counter != 0</text></g><g mask="url(#mask-EjPPExF_gQJhnezKs-NeO)" stroke-linecap="round"><g transform="translate(1405.7142877578733 1102.17209982872) rotate(0 -194 127)"><path d="M1.18 -0.15 C-16.29 23.14, -39 96.76, -103.76 139.15 C-168.52 181.54, -339.92 235.08, -387.39 254.19 M0.34 -1.28 C-17.36 22.2, -39.89 97.42, -104.59 140.24 C-169.28 183.05, -340.5 236.51, -387.84 255.61" stroke="#1e1e1e" stroke-width="1" fill="none"></path></g><g transform="translate(1405.7142877578733 1102.17209982872) rotate(0 -194 127)"><path d="M-365.07 236.77 C-375.25 245.06, -382.41 250.54, -388.15 256.36 M-363.99 236.45 C-374.52 243.47, -382.11 250.39, -386.99 256.29" stroke="#1e1e1e" stroke-width="1" fill="none"></path></g><g transform="translate(1405.7142877578733 1102.17209982872) rotate(0 -194 127)"><path d="M-358.09 256.07 C-370.87 256.96, -380.73 254.97, -388.15 256.36 M-357.01 255.75 C-370.09 255.54, -380.31 255.19, -386.99 256.29" stroke="#1e1e1e" stroke-width="1" fill="none"></path></g></g><mask id="mask-EjPPExF_gQJhnezKs-NeO"><rect x="0" y="0" fill="#fff" width="1893.7142877578733" height="1456.17209982872"></rect><rect x="1202.744294166565" y="1229.67209982872" fill="#000" width="197.9399871826172" height="25" opacity="1"></rect></mask><g transform="translate(1202.744294166565 1229.67209982872) rotate(0 9.64045652935738 -0.3368816078175314)"><text x="98.9699935913086" y="0" font-family="Virgil, Segoe UI Emoji" font-size="20px" fill="#1e1e1e" text-anchor="middle" style="white-space: pre;" direction="ltr" dominant-baseline="text-before-edge">no carry (c = false)</text></g><g stroke-linecap="round" transform="translate(37.464287757873535 2289.92209982872) rotate(0 171 117.5)"><path d="M32 0 M32 0 C107.98 -2.98, 183.66 -3.39, 310 0 M32 0 C124.46 -2.03, 218.22 -1.18, 310 0 M310 0 C331.03 -0.1, 343.7 10.43, 342 32 M310 0 C331.54 -1.11, 343.49 11.23, 342 32 M342 32 C343.17 85.06, 342.39 140.11, 342 203 M342 32 C341.44 96.73, 340.22 158.65, 342 203 M342 203 C340.95 224.77, 332.67 236.15, 310 235 M342 203 C340.01 223.98, 332.76 237.17, 310 235 M310 235 C225.67 234.7, 143.58 234.42, 32 235 M310 235 C206.38 233.04, 103.63 232.81, 32 235 M32 235 C11.75 235.48, -1.67 225.91, 0 203 M32 235 C10.24 234.55, -0.5 226.26, 0 203 M0 203 C-1.69 149.85, 0.65 95.26, 0 32 M0 203 C-1.84 163.87, -0.73 122.78, 0 32 M0 32 C-0.48 10.11, 10.91 -0.31, 32 0 M0 32 C1.41 12.25, 12.84 -0.95, 32 0" stroke="#1e1e1e" stroke-width="1" fill="none"></path></g><g transform="translate(65.81426334381104 2319.92209982872) rotate(0 142.6500244140625 87.5)"><text x="142.6500244140625" y="0" font-family="Virgil, Segoe UI Emoji" font-size="20px" fill="#1e1e1e" text-anchor="middle" style="white-space: pre;" direction="ltr" dominant-baseline="text-before-edge">DVUM0</text><text x="142.6500244140625" y="25" font-family="Virgil, Segoe UI Emoji" font-size="20px" fill="#1e1e1e" text-anchor="middle" style="white-space: pre;" direction="ltr" dominant-baseline="text-before-edge"></text><text x="142.6500244140625" y="50" font-family="Virgil, Segoe UI Emoji" font-size="20px" fill="#1e1e1e" text-anchor="middle" style="white-space: pre;" direction="ltr" dominant-baseline="text-before-edge">Rx_Low = aule</text><text x="142.6500244140625" y="75" font-family="Virgil, Segoe UI Emoji" font-size="20px" fill="#1e1e1e" text-anchor="middle" style="white-space: pre;" direction="ltr" dominant-baseline="text-before-edge">alu = alue - 0</text><text x="142.6500244140625" y="100" font-family="Virgil, Segoe UI Emoji" font-size="20px" fill="#1e1e1e" text-anchor="middle" style="white-space: pre;" direction="ltr" dominant-baseline="text-before-edge"></text><text x="142.6500244140625" y="125" font-family="Virgil, Segoe UI Emoji" font-size="20px" fill="#1e1e1e" text-anchor="middle" style="white-space: pre;" direction="ltr" dominant-baseline="text-before-edge">Move quotient into register, </text><text x="142.6500244140625" y="150" font-family="Virgil, Segoe UI Emoji" font-size="20px" fill="#1e1e1e" text-anchor="middle" style="white-space: pre;" direction="ltr" dominant-baseline="text-before-edge">resume execution.</text></g><g stroke-linecap="round"><g transform="translate(192.46428775787354 2191.42209982872) rotate(0 1.9897959183673493 48.75)"><path d="M0.27 -0.79 C0.78 15.45, 3.02 80.56, 3.44 96.88 M-1.05 1.42 C-0.77 17.84, 1.19 81.96, 2.21 98.09" stroke="#1e1e1e" stroke-width="1" fill="none"></path></g><g transform="translate(192.46428775787354 2191.42209982872) rotate(0 1.9897959183673493 48.75)"><path d="M-10.6 69.47 C-6.67 77.48, -2.54 90.52, 3.15 96.66 M-9.99 70.01 C-7.36 77.92, -4.13 83.92, 1.67 98.78" stroke="#1e1e1e" stroke-width="1" fill="none"></path></g><g transform="translate(192.46428775787354 2191.42209982872) rotate(0 1.9897959183673493 48.75)"><path d="M9.9 68.57 C7.08 76.92, 4.46 90.25, 3.15 96.66 M10.51 69.11 C7.76 77.24, 5.61 83.48, 1.67 98.78" stroke="#1e1e1e" stroke-width="1" fill="none"></path></g></g><mask></mask><g stroke-linecap="round"><g transform="translate(844.994576526858 2226.42209982872) rotate(0 -229.26514438449226 91.8822328542019)"><path d="M-0.34 -0.55 C-76.63 30.33, -381.53 153.56, -457.98 184.26 M1.68 1.78 C-74.69 32.39, -381.68 151.87, -458.64 182.4" stroke="#1e1e1e" stroke-width="1" fill="none"></path></g><g transform="translate(844.994576526858 2226.42209982872) rotate(0 -229.26514438449226 91.8822328542019)"><path d="M-437.07 163.46 C-441.71 167.07, -448.92 171.71, -458.49 182.42 M-437.09 163.2 C-445.17 168.95, -453.33 177.59, -458.86 181.49" stroke="#1e1e1e" stroke-width="1" fill="none"></path></g><g transform="translate(844.994576526858 2226.42209982872) rotate(0 -229.26514438449226 91.8822328542019)"><path d="M-429.57 182.56 C-436.11 180.88, -445.4 180.25, -458.49 182.42 M-429.59 182.3 C-440.42 180.89, -451.38 182.42, -458.86 181.49" stroke="#1e1e1e" stroke-width="1" fill="none"></path></g></g><mask></mask></svg>